<svg xmlns="http://www.w3.org/2000/svg" viewBox="535.31 116.33 929.98 1768" role="img"><path style="fill:none;stroke:#0E0E0E;stroke-width:4;stroke-linejoin:round;stroke-linecap:round;stroke-miterlimit:10" d="M 674.742 150.33 c 0 0 -22.655 88.878 -43.567 198.667 s -41.825 321.527 -48.795 547.207 s -8.714 734.546 -13.07 914.044 l 328.498 40.082 c 0 0 47.053 -445.259 57.509 -595.131 s 43.785 -535.879 46.399 -558.534 l 0 0 c 2.614 22.655 33.111 408.662 43.567 558.534 s 57.509 595.131 57.509 595.131 l 328.498 -40.082 c -4.357 -179.498 -6.099 -688.365 -13.07 -914.044 s -27.883 -437.417 -48.796 -547.207 s -43.567 -198.667 -43.567 -198.667 s -153.924 23.853 -324.547 23.853 S 674.742 150.33 674.742 150.33 Z"/><path style="fill:none;stroke:#0E0E0E;stroke-width:4;stroke-linejoin:round;stroke-linecap:round;stroke-miterlimit:10" d="M 1421.704 1811.119 c 0 0 -9.585 -465.3 -11.328 -598.616 s -5.228 -460.943 -33.111 -654.382 s -43.567 -284.059 -56.638 -343.311"/><path style="fill:none;stroke:#0E0E0E;stroke-width:4;stroke-linejoin:round;stroke-linecap:round;stroke-miterlimit:10" d="M 1421.286 1780.215 L 1099.376 1819.234"/><path style="fill:none;stroke:#0E0E0E;stroke-width:4;stroke-linejoin:round;stroke-linecap:round;stroke-miterlimit:10" d="M 578.893 1811.119 c 0 0 9.585 -465.3 11.328 -598.616 c 1.743 -133.316 5.228 -460.943 33.111 -654.382 c 27.883 -193.439 43.567 -284.059 56.638 -343.311"/><path style="fill:none;stroke:#0E0E0E;stroke-width:4;stroke-linejoin:round;stroke-linecap:round;stroke-miterlimit:10" d="M 579.312 1780.215 L 901.222 1819.234"/><path style="fill:none;stroke:#0E0E0E;stroke-width:4;stroke-linejoin:round;stroke-linecap:round;stroke-miterlimit:10" d="M 1325.856 150.33 c 0 0 -205.532 45.445 -322.967 45.445 S 674.742 150.33 674.742 150.33"/><path style="fill:none;stroke:#0E0E0E;stroke-width:2;stroke-linejoin:round;stroke-linecap:round;stroke-miterlimit:10" d="M 1323.925 156.731 c 0 0 -0.192 0.043 -0.566 0.125"/><path style="fill:none;stroke:#0E0E0E;stroke-width:2;stroke-dasharray:7.995 7.995;stroke-linejoin:round;stroke-linecap:round;stroke-miterlimit:10" d="M 1322.222 157.106 c -19.87 4.349 -208.844 45.069 -319.348 45.069 c -111.708 0 -308.319 -41.612 -325.058 -45.199"/><path style="fill:none;stroke:#0E0E0E;stroke-width:2;stroke-linejoin:round;stroke-linecap:round;stroke-miterlimit:10" d="M 677.239 156.853 c -0.375 -0.081 -0.567 -0.122 -0.567 -0.122"/><path style="fill:none;stroke:#0E0E0E;stroke-width:4;stroke-linejoin:round;stroke-linecap:round;stroke-miterlimit:10" d="M 1340.449 209.311 c 0 0 -214.745 45.445 -337.444 45.445 s -342.856 -45.445 -342.856 -45.445"/><path style="fill:none;stroke:#0E0E0E;stroke-width:2;stroke-linejoin:round;stroke-linecap:round;stroke-miterlimit:10" d="M 1338.432 201.994 c 0 0 -0.192 0.041 -0.568 0.12"/><path style="fill:none;stroke:#0E0E0E;stroke-width:2;stroke-dasharray:8.002 8.002;stroke-linejoin:round;stroke-linecap:round;stroke-miterlimit:10" d="M 1336.724 202.354 c -20.367 4.269 -218.142 45.085 -333.736 45.085 c -116.822 0 -322.516 -41.688 -339.677 -45.208"/><path style="fill:none;stroke:#0E0E0E;stroke-width:2;stroke-linejoin:round;stroke-linecap:round;stroke-miterlimit:10" d="M 662.734 202.111 c -0.376 -0.077 -0.568 -0.117 -0.568 -0.117"/><path style="fill:none;stroke:#0E0E0E;stroke-width:4;stroke-linejoin:round;stroke-linecap:round;stroke-miterlimit:10" d="M 1001.714 696.665 c 0 0 -5.331 -156.193 -5.921 -217.006 s -3.543 -225.542 -3.543 -225.542"/><path style="fill:none;stroke:#0E0E0E;stroke-width:4;stroke-linejoin:round;stroke-linecap:round;stroke-miterlimit:10" d="M 1098.299 187.28 H 1118.423 V 280.788 H 1098.299 Z"/><path style="fill:none;stroke:#0E0E0E;stroke-width:4;stroke-linejoin:round;stroke-linecap:round;stroke-miterlimit:10" d="M 882.174 187.28 H 902.298 V 280.788 H 882.174 Z"/><path style="fill:none;stroke:#0E0E0E;stroke-width:4;stroke-linejoin:round;stroke-linecap:round;stroke-miterlimit:10" d="M 1055.104 313.996 H 1312.383 V 600.5709999999999 H 1055.104 Z"/><path style="fill:none;stroke:#0E0E0E;stroke-width:2;stroke-linejoin:round;stroke-linecap:round;stroke-miterlimit:10" d="M 1297.257 310.953 L 1297.285 311.537"/><path style="fill:none;stroke:#0E0E0E;stroke-width:2;stroke-dasharray:8.01 8.01;stroke-linejoin:round;stroke-linecap:round;stroke-miterlimit:10" d="M 1297.34 312.707 L 1310.356 585.822"/><path style="fill:none;stroke:#0E0E0E;stroke-width:2;stroke-linejoin:round;stroke-linecap:round;stroke-miterlimit:10" d="M 1310.384 586.406 L 1310.412 586.99 L 1309.828 587.016"/><path style="fill:none;stroke:#0E0E0E;stroke-width:2;stroke-dasharray:7.992 7.992;stroke-linejoin:round;stroke-linecap:round;stroke-miterlimit:10" d="M 1308.661 587.067 L 1071.128 597.446"/><path style="fill:none;stroke:#0E0E0E;stroke-width:2;stroke-linejoin:round;stroke-linecap:round;stroke-miterlimit:10" d="M 1070.544 597.472 L 1069.96 597.497 L 1069.928 596.913"/><path style="fill:none;stroke:#0E0E0E;stroke-width:2;stroke-dasharray:7.97 7.97;stroke-linejoin:round;stroke-linecap:round;stroke-miterlimit:10" d="M 1069.865 595.75 L 1054.932 321.749"/><path style="fill:none;stroke:#0E0E0E;stroke-width:2;stroke-linejoin:round;stroke-linecap:round;stroke-miterlimit:10" d="M 1054.901 321.167 L 1054.869 320.583"/><path style="fill:none;stroke:#0E0E0E;stroke-width:2;stroke-linejoin:round;stroke-linecap:round;stroke-miterlimit:10" d="M 1290.734 309.965 L 1290.759 310.55"/><path style="fill:none;stroke:#0E0E0E;stroke-width:2;stroke-dasharray:8.011 8.011;stroke-linejoin:round;stroke-linecap:round;stroke-miterlimit:10" d="M 1290.809 311.72 L 1302.178 577.93"/><path style="fill:none;stroke:#0E0E0E;stroke-width:2;stroke-linejoin:round;stroke-linecap:round;stroke-miterlimit:10" d="M 1302.203 578.515 L 1302.228 579.1 L 1301.644 579.128"/><path style="fill:none;stroke:#0E0E0E;stroke-width:2;stroke-dasharray:8.021 8.021;stroke-linejoin:round;stroke-linecap:round;stroke-miterlimit:10" d="M 1300.473 579.185 L 1078.517 589.992"/><path style="fill:none;stroke:#0E0E0E;stroke-width:2;stroke-linejoin:round;stroke-linecap:round;stroke-miterlimit:10" d="M 1077.931 590.02 L 1077.347 590.049 L 1077.318 589.465"/><path style="fill:none;stroke:#0E0E0E;stroke-width:2;stroke-dasharray:7.969 7.969;stroke-linejoin:round;stroke-linecap:round;stroke-miterlimit:10" d="M 1077.261 588.301 L 1064.103 321.232"/><path style="fill:none;stroke:#0E0E0E;stroke-width:2;stroke-linejoin:round;stroke-linecap:round;stroke-miterlimit:10" d="M 1064.074 320.65 L 1064.045 320.066"/><path style="fill:none;stroke:#0E0E0E;stroke-width:2;stroke-dasharray:8;stroke-linejoin:round;stroke-linecap:round;stroke-miterlimit:10" d="M 1305.262 316.169 L 1049.313 327.566"/><path style="fill:none;stroke:#0E0E0E;stroke-width:2;stroke-dasharray:8;stroke-linejoin:round;stroke-linecap:round;stroke-miterlimit:10" d="M 1306.076 327.9 L 1050.128 339.298"/><path style="fill:none;stroke:#0E0E0E;stroke-width:4;stroke-linejoin:round;stroke-linecap:round;stroke-miterlimit:10" d="M 687.066 313.996 H 944.345 V 600.5709999999999 H 687.066 Z"/><path style="fill:none;stroke:#0E0E0E;stroke-width:2;stroke-linejoin:round;stroke-linecap:round;stroke-miterlimit:10" d="M 702.192 310.953 L 702.165 311.537"/><path style="fill:none;stroke:#0E0E0E;stroke-width:2;stroke-dasharray:8.01 8.01;stroke-linejoin:round;stroke-linecap:round;stroke-miterlimit:10" d="M 702.109 312.707 L 689.093 585.822"/><path style="fill:none;stroke:#0E0E0E;stroke-width:2;stroke-linejoin:round;stroke-linecap:round;stroke-miterlimit:10" d="M 689.065 586.406 L 689.037 586.99 L 689.621 587.016"/><path style="fill:none;stroke:#0E0E0E;stroke-width:2;stroke-dasharray:7.992 7.992;stroke-linejoin:round;stroke-linecap:round;stroke-miterlimit:10" d="M 690.789 587.067 L 928.322 597.446"/><path style="fill:none;stroke:#0E0E0E;stroke-width:2;stroke-linejoin:round;stroke-linecap:round;stroke-miterlimit:10" d="M 928.905 597.472 L 929.489 597.497 L 929.521 596.913"/><path style="fill:none;stroke:#0E0E0E;stroke-width:2;stroke-dasharray:7.97 7.97;stroke-linejoin:round;stroke-linecap:round;stroke-miterlimit:10" d="M 929.585 595.75 L 944.517 321.749"/><path style="fill:none;stroke:#0E0E0E;stroke-width:2;stroke-linejoin:round;stroke-linecap:round;stroke-miterlimit:10" d="M 944.549 321.167 L 944.58 320.583"/><path style="fill:none;stroke:#0E0E0E;stroke-width:2;stroke-linejoin:round;stroke-linecap:round;stroke-miterlimit:10" d="M 708.715 309.965 L 708.69 310.55"/><path style="fill:none;stroke:#0E0E0E;stroke-width:2;stroke-dasharray:8.011 8.011;stroke-linejoin:round;stroke-linecap:round;stroke-miterlimit:10" d="M 708.64 311.72 L 697.271 577.93"/><path style="fill:none;stroke:#0E0E0E;stroke-width:2;stroke-linejoin:round;stroke-linecap:round;stroke-miterlimit:10" d="M 697.246 578.515 L 697.221 579.1 L 697.805 579.128"/><path style="fill:none;stroke:#0E0E0E;stroke-width:2;stroke-dasharray:8.021 8.021;stroke-linejoin:round;stroke-linecap:round;stroke-miterlimit:10" d="M 698.976 579.185 L 920.933 589.992"/><path style="fill:none;stroke:#0E0E0E;stroke-width:2;stroke-linejoin:round;stroke-linecap:round;stroke-miterlimit:10" d="M 921.518 590.02 L 922.103 590.049 L 922.131 589.465"/><path style="fill:none;stroke:#0E0E0E;stroke-width:2;stroke-dasharray:7.969 7.969;stroke-linejoin:round;stroke-linecap:round;stroke-miterlimit:10" d="M 922.189 588.301 L 935.347 321.232"/><path style="fill:none;stroke:#0E0E0E;stroke-width:2;stroke-linejoin:round;stroke-linecap:round;stroke-miterlimit:10" d="M 935.375 320.65 L 935.404 320.066"/><path style="fill:none;stroke:#0E0E0E;stroke-width:2;stroke-dasharray:8;stroke-linejoin:round;stroke-linecap:round;stroke-miterlimit:10" d="M 694.188 316.169 L 950.136 327.566"/><path style="fill:none;stroke:#0E0E0E;stroke-width:2;stroke-dasharray:8;stroke-linejoin:round;stroke-linecap:round;stroke-miterlimit:10" d="M 693.374 327.9 L 949.322 339.298"/></svg>