<svg xmlns="http://www.w3.org/2000/svg" viewBox="510.78 116.12 979.08 1778.98" role="img"><path style="fill:none;stroke:#0E0E0E;stroke-width:2;stroke-linejoin:round;stroke-linecap:round;stroke-miterlimit:10" d="M 999.713 957.64 c 67.963 206.584 66.689 508.962 23.518 864.348 c -0.293 35.304 432.123 38.9 432.417 3.596 c -31.098 -189.588 -47.622 -415.802 -57.209 -659.449 c -10.322 -434.228 -30.382 -843.125 -141.447 -956.246 c 0 0 5.365 -34.875 -16.633 -59.557 c 0 0 -73.128 6.439 -227.656 6.439 h -24.767 c -154.528 0 -227.656 -6.439 -227.656 -6.439 c -21.999 24.681 -16.633 59.557 -16.633 59.557 C 632.583 323.01 612.523 731.907 602.201 1166.135 c -9.587 243.647 -26.111 469.861 -57.209 659.449 c 0.294 35.304 432.71 31.708 432.417 -3.596 c -43.171 -355.386 -46.752 -657.764 21.211 -864.348 H 999.713 Z"/><path style="fill:none;stroke:#0E0E0E;stroke-width:2;stroke-linejoin:round;stroke-linecap:round;stroke-miterlimit:10" d="M 1256.993 209.89 c 0 0 -99.956 11.268 -244.289 11.268 h -24.767 c -144.333 0 -244.289 -11.268 -244.289 -11.268"/><path style="fill:none;stroke:#0E0E0E;stroke-width:1;stroke-dasharray:3;stroke-linejoin:round;stroke-linecap:round;stroke-miterlimit:10" d="M 737.605 216.09 c 0 0 102.309 12.811 250.039 12.811 h 25.35 c 147.731 0 250.04 -12.811 250.04 -12.811"/><path style="fill:none;stroke:#0E0E0E;stroke-width:2;stroke-linejoin:round;stroke-linecap:round;stroke-miterlimit:10" d="M 998.62 957.64 L 998.62 221.557"/><path style="fill:none;stroke:#0E0E0E;stroke-width:2;stroke-linejoin:round;stroke-linecap:round;stroke-miterlimit:10" d="M 811.661 1789.089 h -0.244 c -3.05 -0.001 -6.104 -0.018 -9.159 -0.05 l 0.034 -1.728 c 3.044 0.033 6.086 0.049 9.125 0.05 h 0.244 V 1789.089 Z"/><path style="fill:none;stroke:#0E0E0E;stroke-width:2;stroke-linejoin:round;stroke-linecap:round;stroke-miterlimit:10" d="M 818.721 1789.056 l -0.029 -1.728 c 3.129 -0.029 6.253 -0.076 9.369 -0.143 l 0.068 1.728 C 824.999 1788.98 821.863 1789.027 818.721 1789.056 Z"/><path style="fill:none;stroke:#0E0E0E;stroke-width:2;stroke-linejoin:round;stroke-linecap:round;stroke-miterlimit:10" d="M 795.201 1788.935 c -3.136 -0.058 -6.272 -0.133 -9.407 -0.223 l 0.092 -1.728 c 3.123 0.09 6.249 0.165 9.373 0.223 L 795.201 1788.935 Z"/><path style="fill:none;stroke:#0E0E0E;stroke-width:2;stroke-linejoin:round;stroke-linecap:round;stroke-miterlimit:10" d="M 835.188 1788.73 l -0.098 -1.728 c 3.13 -0.097 6.25 -0.214 9.356 -0.355 l 0.144 1.725 C 841.468 1788.514 838.333 1788.631 835.188 1788.73 Z"/><path style="fill:none;stroke:#0E0E0E;stroke-width:2;stroke-linejoin:round;stroke-linecap:round;stroke-miterlimit:10" d="M 778.748 1788.482 c -3.131 -0.113 -6.259 -0.239 -9.381 -0.379 l 0.142 -1.726 c 3.113 0.14 6.231 0.266 9.352 0.379 L 778.748 1788.482 Z"/><path style="fill:none;stroke:#0E0E0E;stroke-width:2;stroke-linejoin:round;stroke-linecap:round;stroke-miterlimit:10" d="M 851.642 1788.018 l -0.177 -1.723 c 3.127 -0.175 6.239 -0.373 9.333 -0.594 l 0.227 1.721 C 857.915 1787.646 854.786 1787.843 851.642 1788.018 Z"/><path style="fill:none;stroke:#0E0E0E;stroke-width:2;stroke-linejoin:round;stroke-linecap:round;stroke-miterlimit:10" d="M 762.344 1787.765 c -3.125 -0.162 -6.242 -0.337 -9.35 -0.524 l 0.19 -1.723 c 3.099 0.186 6.208 0.362 9.325 0.521 L 762.344 1787.765 Z"/><path style="fill:none;stroke:#0E0E0E;stroke-width:2;stroke-linejoin:round;stroke-linecap:round;stroke-miterlimit:10" d="M 868.047 1786.877 l -0.266 -1.718 c 3.115 -0.261 6.21 -0.549 9.284 -0.863 l 0.322 1.713 C 874.294 1786.324 871.18 1786.613 868.047 1786.877 Z"/><path style="fill:none;stroke:#0E0E0E;stroke-width:2;stroke-linejoin:round;stroke-linecap:round;stroke-miterlimit:10" d="M 745.967 1786.797 c -3.133 -0.209 -6.253 -0.428 -9.359 -0.658 l 0.234 -1.721 c 3.1 0.23 6.212 0.449 9.336 0.655 L 745.967 1786.797 Z"/><path style="fill:none;stroke:#0E0E0E;stroke-width:2;stroke-linejoin:round;stroke-linecap:round;stroke-miterlimit:10" d="M 729.594 1785.598 c -3.132 -0.25 -6.247 -0.51 -9.343 -0.781 l 0.277 -1.716 c 3.087 0.269 6.195 0.529 9.319 0.779 L 729.594 1785.598 Z"/><path style="fill:none;stroke:#0E0E0E;stroke-width:2;stroke-linejoin:round;stroke-linecap:round;stroke-miterlimit:10" d="M 884.371 1785.249 l -0.365 -1.708 c 3.11 -0.361 6.211 -0.754 9.216 -1.168 l 0.431 1.701 C 890.626 1784.489 887.504 1784.885 884.371 1785.249 Z"/><path style="fill:none;stroke:#0E0E0E;stroke-width:2;stroke-linejoin:round;stroke-linecap:round;stroke-miterlimit:10" d="M 713.251 1784.186 c -3.13 -0.29 -6.238 -0.59 -9.322 -0.896 l 0.314 -1.713 c 3.077 0.306 6.178 0.604 9.302 0.894 L 713.251 1784.186 Z"/><path style="fill:none;stroke:#0E0E0E;stroke-width:2;stroke-linejoin:round;stroke-linecap:round;stroke-miterlimit:10" d="M 900.585 1783.066 l -0.48 -1.693 c 3.099 -0.476 6.166 -0.986 9.119 -1.515 l 0.553 1.68 C 906.8 1782.07 903.708 1782.584 900.585 1783.066 Z"/><path style="fill:none;stroke:#0E0E0E;stroke-width:2;stroke-linejoin:round;stroke-linecap:round;stroke-miterlimit:10" d="M 696.946 1782.576 c -3.129 -0.326 -6.231 -0.661 -9.303 -1.003 l 0.35 -1.71 c 3.065 0.341 6.16 0.676 9.282 1.003 L 696.946 1782.576 Z"/><path style="fill:none;stroke:#0E0E0E;stroke-width:2;stroke-linejoin:round;stroke-linecap:round;stroke-miterlimit:10" d="M 680.674 1780.78 c -3.128 -0.364 -6.223 -0.734 -9.28 -1.108 l 0.385 -1.705 c 3.049 0.374 6.138 0.741 9.261 1.105 L 680.674 1780.78 Z"/><path style="fill:none;stroke:#0E0E0E;stroke-width:2;stroke-linejoin:round;stroke-linecap:round;stroke-miterlimit:10" d="M 916.623 1780.244 l -0.611 -1.668 c 3.022 -0.601 6.041 -1.245 8.971 -1.916 l 0.696 1.65 C 922.719 1778.987 919.673 1779.637 916.623 1780.244 Z"/><path style="fill:none;stroke:#0E0E0E;stroke-width:2;stroke-linejoin:round;stroke-linecap:round;stroke-miterlimit:10" d="M 664.441 1778.805 c -3.133 -0.398 -6.22 -0.8 -9.258 -1.207 l 0.417 -1.701 c 3.033 0.404 6.114 0.807 9.24 1.204 L 664.441 1778.805 Z"/><path style="fill:none;stroke:#0E0E0E;stroke-width:2;stroke-linejoin:round;stroke-linecap:round;stroke-miterlimit:10" d="M 932.403 1776.693 l -0.762 -1.636 c 2.97 -0.751 5.917 -1.55 8.759 -2.373 l 0.859 1.608 C 938.385 1775.125 935.406 1775.932 932.403 1776.693 Z"/><path style="fill:none;stroke:#0E0E0E;stroke-width:2;stroke-linejoin:round;stroke-linecap:round;stroke-miterlimit:10" d="M 648.247 1776.659 c -3.137 -0.433 -6.217 -0.867 -9.235 -1.302 l 0.45 -1.696 c 3.013 0.433 6.086 0.867 9.218 1.299 L 648.247 1776.659 Z"/><path style="fill:none;stroke:#0E0E0E;stroke-width:2;stroke-linejoin:round;stroke-linecap:round;stroke-miterlimit:10" d="M 632.097 1774.347 c -3.148 -0.466 -6.221 -0.932 -9.213 -1.393 l 0.48 -1.693 c 2.987 0.461 6.053 0.926 9.194 1.39 L 632.097 1774.347 Z"/><path style="fill:none;stroke:#0E0E0E;stroke-width:2;stroke-linejoin:round;stroke-linecap:round;stroke-miterlimit:10" d="M 947.801 1772.301 l -0.935 -1.585 c 2.883 -0.923 5.728 -1.896 8.455 -2.893 l 1.044 1.548 C 953.602 1770.382 950.721 1771.367 947.801 1772.301 Z"/><path style="fill:none;stroke:#0E0E0E;stroke-width:2;stroke-linejoin:round;stroke-linecap:round;stroke-miterlimit:10" d="M 615.986 1771.875 c -3.169 -0.504 -6.233 -1 -9.187 -1.487 l 0.513 -1.688 c 2.948 0.486 6.006 0.983 9.169 1.484 L 615.986 1771.875 Z"/><path style="fill:none;stroke:#0E0E0E;stroke-width:2;stroke-linejoin:round;stroke-linecap:round;stroke-miterlimit:10" d="M 599.92 1769.238 c -3.215 -0.547 -6.273 -1.074 -9.161 -1.583 l 0.545 -1.68 c 2.883 0.506 5.934 1.034 9.142 1.578 L 599.92 1769.238 Z"/><path style="fill:none;stroke:#0E0E0E;stroke-width:2;stroke-linejoin:round;stroke-linecap:round;stroke-miterlimit:10" d="M 962.646 1766.953 l -1.13 -1.516 c 2.742 -1.11 5.443 -2.279 8.027 -3.477 l 1.249 1.463 C 968.169 1764.64 965.428 1765.827 962.646 1766.953 Z"/><path style="fill:none;stroke:#0E0E0E;stroke-width:2;stroke-linejoin:round;stroke-linecap:round;stroke-miterlimit:10" d="M 583.9 1766.43 c -3.347 -0.604 -6.399 -1.17 -9.131 -1.684 l 0.581 -1.676 c 2.725 0.514 5.77 1.078 9.109 1.682 L 583.9 1766.43 Z"/><path style="fill:none;stroke:#0E0E0E;stroke-width:2;stroke-linejoin:round;stroke-linecap:round;stroke-miterlimit:10" d="M 567.93 1763.435 c -5.905 -1.15 -9.123 -1.834 -9.123 -1.834 l 0.65 -1.661 c 0.008 0.001 3.208 0.68 9.074 1.824 L 567.93 1763.435 Z"/><path style="fill:none;stroke:#0E0E0E;stroke-width:2;stroke-linejoin:round;stroke-linecap:round;stroke-miterlimit:10" d="M 811.661 1779.511 h -0.244 c -3.05 -0.001 -6.104 -0.017 -9.159 -0.05 l 0.034 -1.728 c 3.044 0.032 6.086 0.049 9.125 0.05 h 0.244 V 1779.511 Z"/><path style="fill:none;stroke:#0E0E0E;stroke-width:2;stroke-linejoin:round;stroke-linecap:round;stroke-miterlimit:10" d="M 818.721 1779.478 l -0.029 -1.728 c 3.129 -0.029 6.253 -0.076 9.369 -0.143 l 0.068 1.728 C 824.999 1779.402 821.863 1779.45 818.721 1779.478 Z"/><path style="fill:none;stroke:#0E0E0E;stroke-width:2;stroke-linejoin:round;stroke-linecap:round;stroke-miterlimit:10" d="M 795.201 1779.357 c -3.136 -0.058 -6.272 -0.133 -9.407 -0.223 l 0.092 -1.728 c 3.123 0.09 6.249 0.165 9.373 0.223 L 795.201 1779.357 Z"/><path style="fill:none;stroke:#0E0E0E;stroke-width:2;stroke-linejoin:round;stroke-linecap:round;stroke-miterlimit:10" d="M 835.188 1779.152 l -0.098 -1.728 c 3.13 -0.098 6.25 -0.214 9.356 -0.355 l 0.144 1.725 C 841.468 1778.936 838.333 1779.053 835.188 1779.152 Z"/><path style="fill:none;stroke:#0E0E0E;stroke-width:2;stroke-linejoin:round;stroke-linecap:round;stroke-miterlimit:10" d="M 778.748 1778.905 c -3.131 -0.113 -6.259 -0.239 -9.381 -0.379 l 0.142 -1.725 c 3.113 0.14 6.231 0.266 9.352 0.379 L 778.748 1778.905 Z"/><path style="fill:none;stroke:#0E0E0E;stroke-width:2;stroke-linejoin:round;stroke-linecap:round;stroke-miterlimit:10" d="M 851.642 1778.441 l -0.177 -1.723 c 3.127 -0.175 6.239 -0.372 9.333 -0.594 l 0.227 1.721 C 857.915 1778.068 854.786 1778.266 851.642 1778.441 Z"/><path style="fill:none;stroke:#0E0E0E;stroke-width:2;stroke-linejoin:round;stroke-linecap:round;stroke-miterlimit:10" d="M 762.344 1778.187 c -3.125 -0.163 -6.242 -0.338 -9.35 -0.524 l 0.19 -1.723 c 3.099 0.186 6.208 0.361 9.325 0.521 L 762.344 1778.187 Z"/><path style="fill:none;stroke:#0E0E0E;stroke-width:2;stroke-linejoin:round;stroke-linecap:round;stroke-miterlimit:10" d="M 868.047 1777.299 l -0.266 -1.718 c 3.115 -0.261 6.21 -0.549 9.284 -0.863 l 0.322 1.713 C 874.294 1776.746 871.18 1777.035 868.047 1777.299 Z"/><path style="fill:none;stroke:#0E0E0E;stroke-width:2;stroke-linejoin:round;stroke-linecap:round;stroke-miterlimit:10" d="M 745.967 1777.219 c -3.133 -0.209 -6.253 -0.428 -9.359 -0.658 l 0.234 -1.72 c 3.1 0.23 6.212 0.449 9.336 0.655 L 745.967 1777.219 Z"/><path style="fill:none;stroke:#0E0E0E;stroke-width:2;stroke-linejoin:round;stroke-linecap:round;stroke-miterlimit:10" d="M 729.594 1776.02 c -3.132 -0.25 -6.247 -0.51 -9.343 -0.781 l 0.277 -1.715 c 3.087 0.269 6.195 0.529 9.319 0.779 L 729.594 1776.02 Z"/><path style="fill:none;stroke:#0E0E0E;stroke-width:2;stroke-linejoin:round;stroke-linecap:round;stroke-miterlimit:10" d="M 884.371 1775.671 l -0.365 -1.708 c 3.11 -0.361 6.211 -0.754 9.216 -1.168 l 0.431 1.701 C 890.626 1774.911 887.504 1775.307 884.371 1775.671 Z"/><path style="fill:none;stroke:#0E0E0E;stroke-width:2;stroke-linejoin:round;stroke-linecap:round;stroke-miterlimit:10" d="M 713.251 1774.608 c -3.13 -0.29 -6.238 -0.59 -9.322 -0.896 l 0.314 -1.713 c 3.077 0.306 6.178 0.604 9.302 0.894 L 713.251 1774.608 Z"/><path style="fill:none;stroke:#0E0E0E;stroke-width:2;stroke-linejoin:round;stroke-linecap:round;stroke-miterlimit:10" d="M 900.585 1773.488 l -0.48 -1.693 c 3.099 -0.476 6.166 -0.987 9.119 -1.516 l 0.553 1.681 C 906.8 1772.493 903.708 1773.007 900.585 1773.488 Z"/><path style="fill:none;stroke:#0E0E0E;stroke-width:2;stroke-linejoin:round;stroke-linecap:round;stroke-miterlimit:10" d="M 696.946 1772.998 c -3.129 -0.326 -6.231 -0.661 -9.303 -1.003 l 0.35 -1.71 c 3.065 0.341 6.16 0.676 9.282 1.003 L 696.946 1772.998 Z"/><path style="fill:none;stroke:#0E0E0E;stroke-width:2;stroke-linejoin:round;stroke-linecap:round;stroke-miterlimit:10" d="M 680.674 1771.202 c -3.128 -0.364 -6.223 -0.734 -9.28 -1.108 l 0.385 -1.705 c 3.049 0.374 6.138 0.741 9.261 1.105 L 680.674 1771.202 Z"/><path style="fill:none;stroke:#0E0E0E;stroke-width:2;stroke-linejoin:round;stroke-linecap:round;stroke-miterlimit:10" d="M 916.623 1770.666 l -0.611 -1.668 c 3.022 -0.601 6.041 -1.245 8.971 -1.916 l 0.696 1.651 C 922.719 1769.409 919.673 1770.059 916.623 1770.666 Z"/><path style="fill:none;stroke:#0E0E0E;stroke-width:2;stroke-linejoin:round;stroke-linecap:round;stroke-miterlimit:10" d="M 664.441 1769.227 c -3.133 -0.398 -6.22 -0.8 -9.258 -1.207 l 0.417 -1.701 c 3.033 0.404 6.114 0.807 9.24 1.204 L 664.441 1769.227 Z"/><path style="fill:none;stroke:#0E0E0E;stroke-width:2;stroke-linejoin:round;stroke-linecap:round;stroke-miterlimit:10" d="M 932.403 1767.115 l -0.762 -1.635 c 2.97 -0.752 5.917 -1.55 8.759 -2.373 l 0.859 1.608 C 938.385 1765.547 935.406 1766.354 932.403 1767.115 Z"/><path style="fill:none;stroke:#0E0E0E;stroke-width:2;stroke-linejoin:round;stroke-linecap:round;stroke-miterlimit:10" d="M 648.247 1767.081 c -3.137 -0.433 -6.217 -0.866 -9.235 -1.302 l 0.45 -1.695 c 3.013 0.433 6.086 0.867 9.218 1.299 L 648.247 1767.081 Z"/><path style="fill:none;stroke:#0E0E0E;stroke-width:2;stroke-linejoin:round;stroke-linecap:round;stroke-miterlimit:10" d="M 632.097 1764.769 c -3.148 -0.466 -6.221 -0.932 -9.213 -1.393 l 0.48 -1.693 c 2.987 0.462 6.053 0.927 9.194 1.39 L 632.097 1764.769 Z"/><path style="fill:none;stroke:#0E0E0E;stroke-width:2;stroke-linejoin:round;stroke-linecap:round;stroke-miterlimit:10" d="M 947.801 1762.723 l -0.935 -1.585 c 2.883 -0.923 5.728 -1.896 8.455 -2.893 l 1.044 1.548 C 953.602 1760.804 950.721 1761.789 947.801 1762.723 Z"/><path style="fill:none;stroke:#0E0E0E;stroke-width:2;stroke-linejoin:round;stroke-linecap:round;stroke-miterlimit:10" d="M 615.986 1762.297 c -3.169 -0.504 -6.233 -1 -9.187 -1.487 l 0.513 -1.688 c 2.948 0.486 6.006 0.983 9.169 1.484 L 615.986 1762.297 Z"/><path style="fill:none;stroke:#0E0E0E;stroke-width:2;stroke-linejoin:round;stroke-linecap:round;stroke-miterlimit:10" d="M 599.92 1759.66 c -3.215 -0.546 -6.273 -1.074 -9.161 -1.583 l 0.545 -1.681 c 2.883 0.506 5.934 1.034 9.142 1.578 L 599.92 1759.66 Z"/><path style="fill:none;stroke:#0E0E0E;stroke-width:2;stroke-linejoin:round;stroke-linecap:round;stroke-miterlimit:10" d="M 962.646 1757.376 l -1.13 -1.516 c 2.742 -1.11 5.443 -2.279 8.027 -3.477 l 1.249 1.463 C 968.169 1755.062 965.428 1756.249 962.646 1757.376 Z"/><path style="fill:none;stroke:#0E0E0E;stroke-width:2;stroke-linejoin:round;stroke-linecap:round;stroke-miterlimit:10" d="M 583.9 1756.852 c -3.347 -0.604 -6.399 -1.17 -9.131 -1.684 l 0.581 -1.675 c 2.725 0.514 5.77 1.078 9.109 1.682 L 583.9 1756.852 Z"/><path style="fill:none;stroke:#0E0E0E;stroke-width:2;stroke-linejoin:round;stroke-linecap:round;stroke-miterlimit:10" d="M 567.93 1753.857 c -5.905 -1.15 -9.123 -1.834 -9.123 -1.834 l 0.65 -1.661 c 0.008 0.001 3.208 0.68 9.074 1.824 L 567.93 1753.857 Z"/><path style="fill:none;stroke:#0E0E0E;stroke-width:2;stroke-linejoin:round;stroke-linecap:round;stroke-miterlimit:10" d="M 1286.06 1789.089 h -0.244 c -3.05 -0.001 -6.104 -0.018 -9.159 -0.05 l 0.034 -1.728 c 3.044 0.033 6.086 0.049 9.125 0.05 h 0.244 V 1789.089 Z"/><path style="fill:none;stroke:#0E0E0E;stroke-width:2;stroke-linejoin:round;stroke-linecap:round;stroke-miterlimit:10" d="M 1293.12 1789.056 l -0.029 -1.728 c 3.129 -0.029 6.253 -0.076 9.369 -0.143 l 0.068 1.728 C 1299.398 1788.98 1296.262 1789.027 1293.12 1789.056 Z"/><path style="fill:none;stroke:#0E0E0E;stroke-width:2;stroke-linejoin:round;stroke-linecap:round;stroke-miterlimit:10" d="M 1269.601 1788.935 c -3.136 -0.058 -6.272 -0.133 -9.407 -0.223 l 0.092 -1.728 c 3.123 0.09 6.249 0.165 9.373 0.223 L 1269.601 1788.935 Z"/><path style="fill:none;stroke:#0E0E0E;stroke-width:2;stroke-linejoin:round;stroke-linecap:round;stroke-miterlimit:10" d="M 1309.587 1788.73 l -0.098 -1.728 c 3.13 -0.097 6.25 -0.214 9.356 -0.355 l 0.144 1.725 C 1315.867 1788.514 1312.732 1788.631 1309.587 1788.73 Z"/><path style="fill:none;stroke:#0E0E0E;stroke-width:2;stroke-linejoin:round;stroke-linecap:round;stroke-miterlimit:10" d="M 1253.148 1788.482 c -3.131 -0.113 -6.259 -0.239 -9.381 -0.379 l 0.143 -1.726 c 3.113 0.14 6.231 0.266 9.352 0.379 L 1253.148 1788.482 Z"/><path style="fill:none;stroke:#0E0E0E;stroke-width:2;stroke-linejoin:round;stroke-linecap:round;stroke-miterlimit:10" d="M 1326.042 1788.018 l -0.177 -1.723 c 3.126 -0.175 6.239 -0.373 9.333 -0.594 l 0.227 1.721 C 1332.314 1787.646 1329.185 1787.843 1326.042 1788.018 Z"/><path style="fill:none;stroke:#0E0E0E;stroke-width:2;stroke-linejoin:round;stroke-linecap:round;stroke-miterlimit:10" d="M 1236.743 1787.765 c -3.125 -0.162 -6.242 -0.337 -9.35 -0.524 l 0.19 -1.723 c 3.099 0.186 6.208 0.362 9.325 0.521 L 1236.743 1787.765 Z"/><path style="fill:none;stroke:#0E0E0E;stroke-width:2;stroke-linejoin:round;stroke-linecap:round;stroke-miterlimit:10" d="M 1342.446 1786.877 l -0.266 -1.718 c 3.115 -0.261 6.21 -0.549 9.284 -0.863 l 0.322 1.713 C 1348.693 1786.324 1345.579 1786.613 1342.446 1786.877 Z"/><path style="fill:none;stroke:#0E0E0E;stroke-width:2;stroke-linejoin:round;stroke-linecap:round;stroke-miterlimit:10" d="M 1220.366 1786.797 c -3.133 -0.209 -6.253 -0.428 -9.359 -0.658 l 0.234 -1.721 c 3.099 0.23 6.212 0.449 9.336 0.655 L 1220.366 1786.797 Z"/><path style="fill:none;stroke:#0E0E0E;stroke-width:2;stroke-linejoin:round;stroke-linecap:round;stroke-miterlimit:10" d="M 1203.993 1785.598 c -3.132 -0.25 -6.246 -0.51 -9.342 -0.781 l 0.276 -1.716 c 3.088 0.269 6.196 0.529 9.319 0.779 L 1203.993 1785.598 Z"/><path style="fill:none;stroke:#0E0E0E;stroke-width:2;stroke-linejoin:round;stroke-linecap:round;stroke-miterlimit:10" d="M 1358.771 1785.249 l -0.365 -1.708 c 3.11 -0.361 6.211 -0.754 9.216 -1.168 l 0.431 1.701 C 1365.026 1784.489 1361.903 1784.885 1358.771 1785.249 Z"/><path style="fill:none;stroke:#0E0E0E;stroke-width:2;stroke-linejoin:round;stroke-linecap:round;stroke-miterlimit:10" d="M 1187.65 1784.186 c -3.13 -0.29 -6.238 -0.59 -9.322 -0.896 l 0.314 -1.713 c 3.078 0.306 6.178 0.604 9.302 0.894 L 1187.65 1784.186 Z"/><path style="fill:none;stroke:#0E0E0E;stroke-width:2;stroke-linejoin:round;stroke-linecap:round;stroke-miterlimit:10" d="M 1374.984 1783.066 l -0.48 -1.693 c 3.099 -0.476 6.166 -0.986 9.119 -1.515 l 0.553 1.68 C 1381.199 1782.07 1378.107 1782.584 1374.984 1783.066 Z"/><path style="fill:none;stroke:#0E0E0E;stroke-width:2;stroke-linejoin:round;stroke-linecap:round;stroke-miterlimit:10" d="M 1171.345 1782.576 c -3.129 -0.326 -6.231 -0.661 -9.303 -1.003 l 0.35 -1.71 c 3.065 0.341 6.16 0.676 9.282 1.003 L 1171.345 1782.576 Z"/><path style="fill:none;stroke:#0E0E0E;stroke-width:2;stroke-linejoin:round;stroke-linecap:round;stroke-miterlimit:10" d="M 1155.073 1780.78 c -3.128 -0.364 -6.223 -0.734 -9.28 -1.108 l 0.385 -1.705 c 3.049 0.374 6.138 0.741 9.261 1.105 L 1155.073 1780.78 Z"/><path style="fill:none;stroke:#0E0E0E;stroke-width:2;stroke-linejoin:round;stroke-linecap:round;stroke-miterlimit:10" d="M 1391.022 1780.244 l -0.611 -1.668 c 3.021 -0.601 6.04 -1.245 8.971 -1.916 l 0.696 1.65 C 1397.119 1778.987 1394.073 1779.637 1391.022 1780.244 Z"/><path style="fill:none;stroke:#0E0E0E;stroke-width:2;stroke-linejoin:round;stroke-linecap:round;stroke-miterlimit:10" d="M 1138.84 1778.805 c -3.132 -0.398 -6.22 -0.8 -9.258 -1.207 l 0.417 -1.701 c 3.033 0.404 6.114 0.807 9.24 1.204 L 1138.84 1778.805 Z"/><path style="fill:none;stroke:#0E0E0E;stroke-width:2;stroke-linejoin:round;stroke-linecap:round;stroke-miterlimit:10" d="M 1406.802 1776.693 l -0.762 -1.636 c 2.97 -0.751 5.917 -1.55 8.759 -2.373 l 0.859 1.608 C 1412.784 1775.125 1409.805 1775.932 1406.802 1776.693 Z"/><path style="fill:none;stroke:#0E0E0E;stroke-width:2;stroke-linejoin:round;stroke-linecap:round;stroke-miterlimit:10" d="M 1122.646 1776.659 c -3.137 -0.433 -6.217 -0.867 -9.235 -1.302 l 0.45 -1.696 c 3.013 0.433 6.086 0.867 9.218 1.299 L 1122.646 1776.659 Z"/><path style="fill:none;stroke:#0E0E0E;stroke-width:2;stroke-linejoin:round;stroke-linecap:round;stroke-miterlimit:10" d="M 1106.497 1774.347 c -3.148 -0.466 -6.221 -0.932 -9.213 -1.393 l 0.48 -1.693 c 2.987 0.461 6.053 0.926 9.194 1.39 L 1106.497 1774.347 Z"/><path style="fill:none;stroke:#0E0E0E;stroke-width:2;stroke-linejoin:round;stroke-linecap:round;stroke-miterlimit:10" d="M 1422.2 1772.301 l -0.935 -1.585 c 2.883 -0.923 5.728 -1.896 8.455 -2.893 l 1.044 1.548 C 1428.002 1770.382 1425.12 1771.367 1422.2 1772.301 Z"/><path style="fill:none;stroke:#0E0E0E;stroke-width:2;stroke-linejoin:round;stroke-linecap:round;stroke-miterlimit:10" d="M 1090.385 1771.875 c -3.169 -0.504 -6.233 -1 -9.187 -1.487 l 0.512 -1.688 c 2.948 0.486 6.006 0.983 9.169 1.484 L 1090.385 1771.875 Z"/><path style="fill:none;stroke:#0E0E0E;stroke-width:2;stroke-linejoin:round;stroke-linecap:round;stroke-miterlimit:10" d="M 1074.319 1769.238 c -3.215 -0.547 -6.273 -1.074 -9.161 -1.583 l 0.544 -1.68 c 2.883 0.506 5.935 1.034 9.143 1.578 L 1074.319 1769.238 Z"/><path style="fill:none;stroke:#0E0E0E;stroke-width:2;stroke-linejoin:round;stroke-linecap:round;stroke-miterlimit:10" d="M 1437.045 1766.953 l -1.13 -1.516 c 2.742 -1.11 5.443 -2.279 8.028 -3.477 l 1.249 1.463 C 1442.568 1764.64 1439.828 1765.827 1437.045 1766.953 Z"/><path style="fill:none;stroke:#0E0E0E;stroke-width:2;stroke-linejoin:round;stroke-linecap:round;stroke-miterlimit:10" d="M 1058.299 1766.43 c -3.347 -0.604 -6.399 -1.17 -9.131 -1.684 l 0.58 -1.676 c 2.725 0.514 5.77 1.078 9.109 1.682 L 1058.299 1766.43 Z"/><path style="fill:none;stroke:#0E0E0E;stroke-width:2;stroke-linejoin:round;stroke-linecap:round;stroke-miterlimit:10" d="M 1042.329 1763.435 c -5.905 -1.15 -9.123 -1.834 -9.123 -1.834 l 0.65 -1.661 c 0.008 0.001 3.208 0.68 9.074 1.824 L 1042.329 1763.435 Z"/><path style="fill:none;stroke:#0E0E0E;stroke-width:2;stroke-linejoin:round;stroke-linecap:round;stroke-miterlimit:10" d="M 1286.06 1779.511 h -0.244 c -3.05 -0.001 -6.104 -0.017 -9.159 -0.05 l 0.034 -1.728 c 3.044 0.032 6.086 0.049 9.125 0.05 h 0.244 V 1779.511 Z"/><path style="fill:none;stroke:#0E0E0E;stroke-width:2;stroke-linejoin:round;stroke-linecap:round;stroke-miterlimit:10" d="M 1293.12 1779.478 l -0.029 -1.728 c 3.129 -0.029 6.253 -0.076 9.369 -0.143 l 0.068 1.728 C 1299.398 1779.402 1296.262 1779.45 1293.12 1779.478 Z"/><path style="fill:none;stroke:#0E0E0E;stroke-width:2;stroke-linejoin:round;stroke-linecap:round;stroke-miterlimit:10" d="M 1269.601 1779.357 c -3.136 -0.058 -6.272 -0.133 -9.407 -0.223 l 0.092 -1.728 c 3.123 0.09 6.249 0.165 9.373 0.223 L 1269.601 1779.357 Z"/><path style="fill:none;stroke:#0E0E0E;stroke-width:2;stroke-linejoin:round;stroke-linecap:round;stroke-miterlimit:10" d="M 1309.587 1779.152 l -0.098 -1.728 c 3.13 -0.098 6.25 -0.214 9.356 -0.355 l 0.144 1.725 C 1315.867 1778.936 1312.732 1779.053 1309.587 1779.152 Z"/><path style="fill:none;stroke:#0E0E0E;stroke-width:2;stroke-linejoin:round;stroke-linecap:round;stroke-miterlimit:10" d="M 1253.148 1778.905 c -3.131 -0.113 -6.259 -0.239 -9.381 -0.379 l 0.143 -1.725 c 3.113 0.14 6.231 0.266 9.352 0.379 L 1253.148 1778.905 Z"/><path style="fill:none;stroke:#0E0E0E;stroke-width:2;stroke-linejoin:round;stroke-linecap:round;stroke-miterlimit:10" d="M 1326.042 1778.441 l -0.177 -1.723 c 3.126 -0.175 6.239 -0.372 9.333 -0.594 l 0.227 1.721 C 1332.314 1778.068 1329.185 1778.266 1326.042 1778.441 Z"/><path style="fill:none;stroke:#0E0E0E;stroke-width:2;stroke-linejoin:round;stroke-linecap:round;stroke-miterlimit:10" d="M 1236.743 1778.187 c -3.125 -0.163 -6.242 -0.338 -9.35 -0.524 l 0.19 -1.723 c 3.099 0.186 6.208 0.361 9.325 0.521 L 1236.743 1778.187 Z"/><path style="fill:none;stroke:#0E0E0E;stroke-width:2;stroke-linejoin:round;stroke-linecap:round;stroke-miterlimit:10" d="M 1342.446 1777.299 l -0.266 -1.718 c 3.115 -0.261 6.21 -0.549 9.284 -0.863 l 0.322 1.713 C 1348.693 1776.746 1345.579 1777.035 1342.446 1777.299 Z"/><path style="fill:none;stroke:#0E0E0E;stroke-width:2;stroke-linejoin:round;stroke-linecap:round;stroke-miterlimit:10" d="M 1220.366 1777.219 c -3.133 -0.209 -6.253 -0.428 -9.359 -0.658 l 0.234 -1.72 c 3.099 0.23 6.212 0.449 9.336 0.655 L 1220.366 1777.219 Z"/><path style="fill:none;stroke:#0E0E0E;stroke-width:2;stroke-linejoin:round;stroke-linecap:round;stroke-miterlimit:10" d="M 1203.993 1776.02 c -3.132 -0.25 -6.246 -0.51 -9.342 -0.781 l 0.276 -1.715 c 3.088 0.269 6.196 0.529 9.319 0.779 L 1203.993 1776.02 Z"/><path style="fill:none;stroke:#0E0E0E;stroke-width:2;stroke-linejoin:round;stroke-linecap:round;stroke-miterlimit:10" d="M 1358.771 1775.671 l -0.365 -1.708 c 3.11 -0.361 6.211 -0.754 9.216 -1.168 l 0.431 1.701 C 1365.026 1774.911 1361.903 1775.307 1358.771 1775.671 Z"/><path style="fill:none;stroke:#0E0E0E;stroke-width:2;stroke-linejoin:round;stroke-linecap:round;stroke-miterlimit:10" d="M 1187.65 1774.608 c -3.13 -0.29 -6.238 -0.59 -9.322 -0.896 l 0.314 -1.713 c 3.078 0.306 6.178 0.604 9.302 0.894 L 1187.65 1774.608 Z"/><path style="fill:none;stroke:#0E0E0E;stroke-width:2;stroke-linejoin:round;stroke-linecap:round;stroke-miterlimit:10" d="M 1374.984 1773.488 l -0.48 -1.693 c 3.099 -0.476 6.166 -0.987 9.119 -1.516 l 0.553 1.681 C 1381.199 1772.493 1378.107 1773.007 1374.984 1773.488 Z"/><path style="fill:none;stroke:#0E0E0E;stroke-width:2;stroke-linejoin:round;stroke-linecap:round;stroke-miterlimit:10" d="M 1171.345 1772.998 c -3.129 -0.326 -6.231 -0.661 -9.303 -1.003 l 0.35 -1.71 c 3.065 0.341 6.16 0.676 9.282 1.003 L 1171.345 1772.998 Z"/><path style="fill:none;stroke:#0E0E0E;stroke-width:2;stroke-linejoin:round;stroke-linecap:round;stroke-miterlimit:10" d="M 1155.073 1771.202 c -3.128 -0.364 -6.223 -0.734 -9.28 -1.108 l 0.385 -1.705 c 3.049 0.374 6.138 0.741 9.261 1.105 L 1155.073 1771.202 Z"/><path style="fill:none;stroke:#0E0E0E;stroke-width:2;stroke-linejoin:round;stroke-linecap:round;stroke-miterlimit:10" d="M 1391.022 1770.666 l -0.611 -1.668 c 3.021 -0.601 6.04 -1.245 8.971 -1.916 l 0.696 1.651 C 1397.119 1769.409 1394.073 1770.059 1391.022 1770.666 Z"/><path style="fill:none;stroke:#0E0E0E;stroke-width:2;stroke-linejoin:round;stroke-linecap:round;stroke-miterlimit:10" d="M 1138.84 1769.227 c -3.132 -0.398 -6.22 -0.8 -9.258 -1.207 l 0.417 -1.701 c 3.033 0.404 6.114 0.807 9.24 1.204 L 1138.84 1769.227 Z"/><path style="fill:none;stroke:#0E0E0E;stroke-width:2;stroke-linejoin:round;stroke-linecap:round;stroke-miterlimit:10" d="M 1406.802 1767.115 l -0.762 -1.635 c 2.97 -0.752 5.917 -1.55 8.759 -2.373 l 0.859 1.608 C 1412.784 1765.547 1409.805 1766.354 1406.802 1767.115 Z"/><path style="fill:none;stroke:#0E0E0E;stroke-width:2;stroke-linejoin:round;stroke-linecap:round;stroke-miterlimit:10" d="M 1122.646 1767.081 c -3.137 -0.433 -6.217 -0.866 -9.235 -1.302 l 0.45 -1.695 c 3.013 0.433 6.086 0.867 9.218 1.299 L 1122.646 1767.081 Z"/><path style="fill:none;stroke:#0E0E0E;stroke-width:2;stroke-linejoin:round;stroke-linecap:round;stroke-miterlimit:10" d="M 1106.497 1764.769 c -3.148 -0.466 -6.221 -0.932 -9.213 -1.393 l 0.48 -1.693 c 2.987 0.462 6.053 0.927 9.194 1.39 L 1106.497 1764.769 Z"/><path style="fill:none;stroke:#0E0E0E;stroke-width:2;stroke-linejoin:round;stroke-linecap:round;stroke-miterlimit:10" d="M 1422.2 1762.723 l -0.935 -1.585 c 2.883 -0.923 5.728 -1.896 8.455 -2.893 l 1.044 1.548 C 1428.002 1760.804 1425.12 1761.789 1422.2 1762.723 Z"/><path style="fill:none;stroke:#0E0E0E;stroke-width:2;stroke-linejoin:round;stroke-linecap:round;stroke-miterlimit:10" d="M 1090.385 1762.297 c -3.169 -0.504 -6.233 -1 -9.187 -1.487 l 0.512 -1.688 c 2.948 0.486 6.006 0.983 9.169 1.484 L 1090.385 1762.297 Z"/><path style="fill:none;stroke:#0E0E0E;stroke-width:2;stroke-linejoin:round;stroke-linecap:round;stroke-miterlimit:10" d="M 1074.319 1759.66 c -3.215 -0.546 -6.273 -1.074 -9.161 -1.583 l 0.544 -1.681 c 2.883 0.506 5.935 1.034 9.143 1.578 L 1074.319 1759.66 Z"/><path style="fill:none;stroke:#0E0E0E;stroke-width:2;stroke-linejoin:round;stroke-linecap:round;stroke-miterlimit:10" d="M 1437.045 1757.376 l -1.13 -1.516 c 2.742 -1.11 5.443 -2.279 8.028 -3.477 l 1.249 1.463 C 1442.568 1755.062 1439.828 1756.249 1437.045 1757.376 Z"/><path style="fill:none;stroke:#0E0E0E;stroke-width:2;stroke-linejoin:round;stroke-linecap:round;stroke-miterlimit:10" d="M 1058.299 1756.852 c -3.347 -0.604 -6.399 -1.17 -9.131 -1.684 l 0.58 -1.675 c 2.725 0.514 5.77 1.078 9.109 1.682 L 1058.299 1756.852 Z"/><path style="fill:none;stroke:#0E0E0E;stroke-width:2;stroke-linejoin:round;stroke-linecap:round;stroke-miterlimit:10" d="M 1042.329 1753.857 c -5.905 -1.15 -9.123 -1.834 -9.123 -1.834 l 0.65 -1.661 c 0.008 0.001 3.208 0.68 9.074 1.824 L 1042.329 1753.857 Z"/><path style="fill:none;stroke:#0E0E0E;stroke-width:2;stroke-linejoin:round;stroke-linecap:round;stroke-miterlimit:10" d="M 638.556 540.094 c 25.556 -94.628 63.398 -179.435 65.23 -269.617"/><path style="fill:none;stroke:#0E0E0E;stroke-width:2;stroke-linejoin:round;stroke-linecap:round;stroke-miterlimit:10" d="M 1361.986 540.094 c -25.556 -94.628 -63.398 -179.435 -65.23 -269.617"/></svg>