<svg xmlns="http://www.w3.org/2000/svg" viewBox="1034.05 448.33 845.41 1106.76" role="img"><path style="fill:none;stroke:#0E0E0E;stroke-width:4;stroke-linejoin:round;stroke-linecap:round;stroke-miterlimit:10" d="M 1567.774 1242.856 c 0 0 40.361 122.562 68.191 179.165 c 27.83 56.604 41.509 57.075 41.509 57.075 c 8.019 9.434 13.208 22.641 19.34 38.679 s 9.906 14.151 17.925 11.321 c 27.83 -13.679 114.151 -26.887 124.057 -28.302 c 9.906 -1.415 12.264 -6.132 11.321 -11.321 c -10.849 -35.377 -3.472 -48.988 -3.472 -48.988 c 11.525 -163.044 -46.669 -371.311 -153.296 -610.996 c -17.52 -31.389 -108.037 -77.378 -108.037 -77.378 s -8.799 -10.772 -8.075 -50.933 c 0 0 38.714 -17.005 34.734 -27.136 c -3.98 -10.131 -16.643 -53.187 -23.518 -83.217 c -6.875 -30.031 -20.262 -57.528 -39.799 -72.725 c -19.538 -15.196 -75.619 -48.483 -87.559 -48.483 h -8.688 c -11.94 0 -68.021 33.287 -87.559 48.483 c -19.538 15.196 -32.925 42.694 -39.799 72.725 c -6.875 30.031 -19.538 73.086 -23.518 83.217 c -3.98 10.131 34.734 27.136 34.734 27.136 c 0.724 40.161 -8.075 50.933 -8.075 50.933 s -90.518 45.989 -108.038 77.378 c -106.627 239.684 -164.821 447.952 -153.296 610.996 c 0 0 7.377 13.61 -3.472 48.988 c -0.943 5.189 1.415 9.906 11.321 11.321 c 9.906 1.415 96.226 14.623 124.057 28.302 c 8.019 2.83 11.792 4.717 17.925 -11.321 s 11.321 -29.245 19.34 -38.679 c 0 0 13.679 -0.472 41.509 -57.075 c 27.83 -56.604 68.191 -179.165 68.191 -179.165 C 1420.47 1221.639 1494.534 1220.237 1567.774 1242.856 Z"/><path style="fill:none;stroke:#0E0E0E;stroke-width:4;stroke-linejoin:round;stroke-linecap:round;stroke-miterlimit:10" d="M 1567.774 1242.856 c 16.209 5.096 34.695 11.22 60.369 25.207 c 0 0 21.427 -24.433 28.019 -73.114 c 0 0 35.555 -81.458 24.399 -173.243 c -11.156 -91.785 -26.876 -165.821 -19.27 -190.162"/><path style="fill:none;stroke:#0E0E0E;stroke-width:4;stroke-linejoin:round;stroke-linecap:round;stroke-miterlimit:10" d="M 1666.322 921.218 L 1711.21 870.402"/><path style="fill:none;stroke:#0E0E0E;stroke-width:2;stroke-dasharray:6.001;stroke-linejoin:round;stroke-linecap:round;stroke-miterlimit:10" d="M 1666.322 913.306 L 1709.258 864.641"/><path style="fill:none;stroke:#0E0E0E;stroke-width:2;stroke-dasharray:6.001;stroke-linejoin:round;stroke-linecap:round;stroke-miterlimit:10" d="M 1667.588 927.707 L 1713.373 875.719"/><path style="fill:none;stroke:#0E0E0E;stroke-width:4;stroke-linejoin:round;stroke-linecap:round;stroke-miterlimit:10" d="M 1677.474 1479.097 c 58.129 -23.462 114.671 -37.259 169.169 -38.61"/><path style="fill:none;stroke:#0E0E0E;stroke-width:2;stroke-dasharray:6.001;stroke-linejoin:round;stroke-linecap:round;stroke-miterlimit:10" d="M 1675.632 1471.729 c 58.129 -23.462 114.671 -37.259 169.169 -38.61"/><path style="fill:none;stroke:#0E0E0E;stroke-width:4;stroke-linejoin:round;stroke-linecap:round;stroke-miterlimit:10" d="M 1345.723 1242.856 c -16.209 5.096 -34.695 11.22 -60.369 25.207 c 0 0 -21.427 -24.433 -28.019 -73.114 c 0 0 -35.555 -81.458 -24.399 -173.243 c 11.156 -91.785 26.876 -165.821 19.27 -190.162"/><path style="fill:none;stroke:#0E0E0E;stroke-width:4;stroke-linejoin:round;stroke-linecap:round;stroke-miterlimit:10" d="M 1247.175 921.218 L 1202.287 870.402"/><path style="fill:none;stroke:#0E0E0E;stroke-width:2;stroke-dasharray:6.001;stroke-linejoin:round;stroke-linecap:round;stroke-miterlimit:10" d="M 1247.175 913.306 L 1204.238 864.641"/><path style="fill:none;stroke:#0E0E0E;stroke-width:2;stroke-dasharray:6.001;stroke-linejoin:round;stroke-linecap:round;stroke-miterlimit:10" d="M 1245.909 927.707 L 1200.124 875.719"/><path style="fill:none;stroke:#0E0E0E;stroke-width:4;stroke-linejoin:round;stroke-linecap:round;stroke-miterlimit:10" d="M 1236.023 1479.097 c -58.129 -23.462 -114.671 -37.259 -169.169 -38.61"/><path style="fill:none;stroke:#0E0E0E;stroke-width:2;stroke-dasharray:6.001;stroke-linejoin:round;stroke-linecap:round;stroke-miterlimit:10" d="M 1237.865 1471.729 c -58.129 -23.462 -114.671 -37.259 -169.169 -38.61"/><path style="fill:none;stroke:#0E0E0E;stroke-width:4;stroke-linejoin:round;stroke-linecap:round;stroke-miterlimit:10" d="M 1656.161 1194.949 c -135.134 -49.982 -268.069 -49.84 -398.825 0"/><path style="fill:none;stroke:#0E0E0E;stroke-width:2;stroke-dasharray:6.001;stroke-linejoin:round;stroke-linecap:round;stroke-miterlimit:10" d="M 1656.161 1188.415 c -135.134 -49.982 -268.069 -49.84 -398.825 0"/><path style="fill:none;stroke:#0E0E0E;stroke-width:4;stroke-linejoin:round;stroke-linecap:round;stroke-miterlimit:10" d="M 1328.187 752.112 c 81.532 54.01 167.273 53.579 257.123 0"/><path style="fill:none;stroke:#0E0E0E;stroke-width:2;stroke-dasharray:6.001;stroke-linejoin:round;stroke-linecap:round;stroke-miterlimit:10" d="M 1321.91 755.919 c 85.513 58.122 175.44 57.658 269.677 0"/><path style="fill:none;stroke:#0E0E0E;stroke-width:4;stroke-linejoin:round;stroke-linecap:round;stroke-miterlimit:10" d="M 1456.686 469.619 L 1456.686 792.382"/><path style="fill:none;stroke:#0E0E0E;stroke-width:4;stroke-linejoin:round;stroke-linecap:round;stroke-miterlimit:10" d="M 1336.262 701.179 c 0 0 0.205 -10.412 -1.44 -22.628"/><path style="fill:none;stroke:#0E0E0E;stroke-width:4;stroke-linejoin:round;stroke-linecap:round;stroke-miterlimit:10" d="M 1577.262 701.179 c 0 0 -0.205 -10.412 1.44 -22.628"/></svg>