<svg xmlns="http://www.w3.org/2000/svg" viewBox="244.56 116.27 1529.71 1768" role="img"><path style="fill:none;stroke:#0E0E0E;stroke-width:2;stroke-linejoin:round;stroke-linecap:round;stroke-miterlimit:10" d="M 1035.438 1743.83 c 0 0 38.965 -0.595 163.902 16.055 s 173.18 58.272 184.313 61.245 c 11.133 2.973 24.121 -22.595 24.121 -22.595 c 2.474 5.946 4.948 23.19 4.948 23.19 c 68.035 -2.973 165.758 28.541 165.758 28.541 c 13.607 -32.704 76.801 -107.713 76.801 -107.713 c 18.211 -13.617 84.987 -118.666 66.775 -365.724 s -250.913 -468.827 -317.688 -533.023 c -66.775 -64.196 -180.09 -213.987 -180.09 -213.987 s 5.935 -23.065 -2.724 -29.011 c 0 0 -2.474 -63.029 7.422 -86.814 c 0 0 46.54 -61.804 -1.641 -160.834 c -48.181 -99.03 -44.859 -87.849 -73.933 -118.197 s -73.103 -84.655 -137.068 -84.655 h -32.055 c -63.965 0 -107.993 54.307 -137.068 84.655 s -25.752 19.167 -73.933 118.197 c -48.181 99.03 -1.641 160.834 -1.641 160.834 c 9.896 23.785 7.422 86.814 7.422 86.814 c -8.659 5.946 -2.724 29.011 -2.724 29.011 S 663.019 779.609 596.244 843.805 s -299.476 285.965 -317.688 533.023 s 48.564 352.107 66.775 365.724 c 0 0 63.194 75.009 76.801 107.713 c 0 0 97.723 -31.514 165.758 -28.541 c 0 0 2.474 -17.244 4.948 -23.19 c 0 0 12.988 25.568 24.121 22.595 c 11.133 -2.973 59.376 -44.596 184.313 -61.245 s 163.902 -16.055 163.902 -16.055 H 1035.438 Z"/><path style="fill:none;stroke:#0E0E0E;stroke-width:2;stroke-linejoin:round;stroke-linecap:round;stroke-miterlimit:10" d="M 1407.775 1798.534 c 0 0 34.691 -49.228 58.215 -65.278 c 0 0 88.783 -129.125 88.783 -262.628 s -131.277 -331.932 -179.083 -422.393 c -47.806 -90.461 -232.96 -320.26 -235.237 -347.982"/><path style="fill:none;stroke:#0E0E0E;stroke-width:2;stroke-linejoin:round;stroke-linecap:round;stroke-miterlimit:10" d="M 1300.565 932.971 L 1399.213 840.322"/><path style="fill:none;stroke:#0E0E0E;stroke-width:1;stroke-dasharray:3;stroke-linejoin:round;stroke-linecap:round;stroke-miterlimit:10" d="M 1307.15 939.302 L 1405.798 846.653"/><path style="fill:none;stroke:#0E0E0E;stroke-width:1;stroke-dasharray:3;stroke-linejoin:round;stroke-linecap:round;stroke-miterlimit:10" d="M 1292.569 926.188 L 1391.217 833.539"/><path style="fill:none;stroke:#0E0E0E;stroke-width:2;stroke-linejoin:round;stroke-linecap:round;stroke-miterlimit:10" d="M 1651.631 1745.987 c 0 0 -63.279 -51.823 -171.088 -36.501"/><path style="fill:none;stroke:#0E0E0E;stroke-width:1;stroke-dasharray:3;stroke-linejoin:round;stroke-linecap:round;stroke-miterlimit:10" d="M 1656.319 1737.425 c 0 0 -63.279 -51.823 -171.088 -36.501"/><path style="fill:none;stroke:#0E0E0E;stroke-width:1;stroke-dasharray:3;stroke-linejoin:round;stroke-linecap:round;stroke-miterlimit:10" d="M 1646.475 1756.351 c 0 0 -63.279 -51.823 -171.088 -36.501"/><path style="fill:none;stroke:#0E0E0E;stroke-width:1;stroke-dasharray:3;stroke-linejoin:round;stroke-linecap:round;stroke-miterlimit:10" d="M 1224.278 610.352 c 0 0 -123.004 66.374 -217.446 66.374 H 993.78 c -94.441 0 -217.446 -66.374 -217.446 -66.374"/><path style="fill:none;stroke:#0E0E0E;stroke-width:1;stroke-dasharray:3;stroke-linejoin:round;stroke-linecap:round;stroke-miterlimit:10" d="M 1471.099 1725.712 c -45.786 -35.69 -116.734 -52.346 -116.734 -52.346 c -236.255 -56.207 -472.295 -56.311 -708.117 0 c 0 0 -70.948 16.656 -116.734 52.346"/><path style="fill:none;stroke:#0E0E0E;stroke-width:2;stroke-linejoin:round;stroke-linecap:round;stroke-miterlimit:10" d="M 592.838 1798.534 c 0 0 -34.691 -49.228 -58.215 -65.278 c 0 0 -88.783 -129.125 -88.783 -262.628 s 131.277 -331.932 179.083 -422.393 c 47.806 -90.461 232.96 -320.26 235.237 -347.982"/><path style="fill:none;stroke:#0E0E0E;stroke-width:2;stroke-linejoin:round;stroke-linecap:round;stroke-miterlimit:10" d="M 700.047 932.971 L 601.4 840.322"/><path style="fill:none;stroke:#0E0E0E;stroke-width:1;stroke-dasharray:3;stroke-linejoin:round;stroke-linecap:round;stroke-miterlimit:10" d="M 693.462 939.302 L 594.815 846.653"/><path style="fill:none;stroke:#0E0E0E;stroke-width:1;stroke-dasharray:3;stroke-linejoin:round;stroke-linecap:round;stroke-miterlimit:10" d="M 708.044 926.188 L 609.396 833.539"/><path style="fill:none;stroke:#0E0E0E;stroke-width:2;stroke-linejoin:round;stroke-linecap:round;stroke-miterlimit:10" d="M 348.981 1745.987 c 0 0 63.279 -51.823 171.088 -36.501"/><path style="fill:none;stroke:#0E0E0E;stroke-width:1;stroke-dasharray:3;stroke-linejoin:round;stroke-linecap:round;stroke-miterlimit:10" d="M 344.294 1737.425 c 0 0 63.279 -51.823 171.088 -36.501"/><path style="fill:none;stroke:#0E0E0E;stroke-width:1;stroke-dasharray:3;stroke-linejoin:round;stroke-linecap:round;stroke-miterlimit:10" d="M 354.137 1756.351 c 0 0 63.279 -51.823 171.088 -36.501"/><path style="fill:none;stroke:#0E0E0E;stroke-width:2;stroke-linejoin:round;stroke-linecap:round;stroke-miterlimit:10" d="M 534.623 1733.257 c 0 0 129.817 -88.451 425.282 -88.451 h 80.803 c 295.465 0 425.282 88.451 425.282 88.451"/><path style="fill:none;stroke:#0E0E0E;stroke-width:2;stroke-linejoin:round;stroke-linecap:round;stroke-miterlimit:10" d="M 779.059 600.806 c 0 0 121.463 69.024 214.722 69.024 h 13.052 c 93.258 0 214.722 -69.024 214.722 -69.024"/><path style="fill:none;stroke:#0E0E0E;stroke-width:2;stroke-linejoin:round;stroke-linecap:round;stroke-miterlimit:10" d="M 1000.526 150.266 L 1000.526 670.002"/></svg>