<svg xmlns="http://www.w3.org/2000/svg" viewBox="295.99 116.31 1408.64 1768" role="img"><path style="fill:none;stroke:#0E0E0E;stroke-width:2.04;stroke-linejoin:round;stroke-linecap:round;stroke-miterlimit:10" d="M 967.751 1823.504 c -293.187 0 -350.248 11.987 -350.248 11.987 c -5.432 -42.471 -27.162 -116.055 -27.162 -116.055 c -8.396 -21.236 -16.791 -80.498 -16.791 -80.498 c -7.902 55.805 -26.668 104.697 -26.668 104.697 c -21.729 35.063 -29.137 106.672 -29.137 106.672 L 341.44 1831.54 c 3.457 -93.832 -11.449 -127.454 -11.449 -127.454 c 37.547 -556.879 239.315 -1018.173 258.418 -1041.428 c 19.103 -23.256 212.622 -106.311 212.622 -106.311 s -57.461 -26.476 -79.055 -60.528 s -20.764 -44.02 -7.89 -70.597 c 12.874 -26.578 20.349 -69.352 29.07 -89.285 c 8.721 -19.933 33.638 -66.445 85.547 -97.59 s 149.085 -88.039 166.527 -88.039 h 10.164 c 17.442 0 114.617 56.893 166.527 88.039 s 76.826 77.657 85.547 97.59 c 8.721 19.933 16.196 62.707 29.07 89.285 c 12.874 26.578 13.704 36.544 -7.89 70.597 s -79.055 60.528 -79.055 60.528 s 193.52 83.056 212.623 106.311 c 19.103 23.256 220.871 484.549 258.418 1041.428 c 0 0 -14.906 33.622 -11.449 127.454 l -176.305 18.766 c 0 0 -7.408 -71.609 -29.137 -106.672 c 0 0 -18.766 -48.891 -26.668 -104.697 c 0 0 -8.396 59.262 -16.791 80.498 c 0 0 -21.729 73.584 -27.162 116.055 c 0 0 -57.061 -11.987 -350.248 -11.987 H 967.751 Z"/><path style="fill:none;stroke:#0E0E0E;stroke-width:2.04;stroke-linejoin:round;stroke-linecap:round;stroke-miterlimit:10" d="M 1453.739 1743.634 c 68.046 -34.101 140.508 -46.474 216.892 -39.548"/><path style="fill:none;stroke:#0E0E0E;stroke-width:1.02;stroke-dasharray:3.06;stroke-linejoin:round;stroke-linecap:round;stroke-miterlimit:10" d="M 1452.399 1733.808 c 68.045 -34.101 140.508 -46.474 216.892 -39.548"/><path style="fill:none;stroke:#0E0E0E;stroke-width:2.04;stroke-linejoin:round;stroke-linecap:round;stroke-miterlimit:10" d="M 1427.071 1638.938 c 0 0 9.001 -244.484 -1.317 -417.963 c -10.318 -173.479 -9.674 -234.744 -27.731 -336.639 c -18.057 -101.894 -39.339 -194.76 -33.535 -211.528"/><path style="fill:none;stroke:#0E0E0E;stroke-width:2.04;stroke-linejoin:round;stroke-linecap:round;stroke-miterlimit:10" d="M 1365.618 704.974 L 1412.213 662.657"/><path style="fill:none;stroke:#0E0E0E;stroke-width:1.02;stroke-dasharray:3.06;stroke-linejoin:round;stroke-linecap:round;stroke-miterlimit:10" d="M 1367.835 714.477 L 1416.923 669.006"/><path style="fill:none;stroke:#0E0E0E;stroke-width:1.02;stroke-dasharray:3.06;stroke-linejoin:round;stroke-linecap:round;stroke-miterlimit:10" d="M 1364.429 694.725 L 1407.05 656.729"/><path style="fill:none;stroke:#0E0E0E;stroke-width:2.04;stroke-linejoin:round;stroke-linecap:round;stroke-miterlimit:10" d="M 1199.59 556.346 c 0 0 -63.79 35.389 -108.161 64.621 c -44.371 29.233 -90.83 67.339 -102.314 85.088"/><path style="fill:none;stroke:#0E0E0E;stroke-width:1.02;stroke-dasharray:3.06;stroke-linejoin:round;stroke-linecap:round;stroke-miterlimit:10" d="M 1225.055 1700.236 c 0.402 0.75 101.112 -0.222 187.406 10.697"/><path style="fill:none;stroke:#0E0E0E;stroke-width:1.02;stroke-dasharray:3.06;stroke-linejoin:round;stroke-linecap:round;stroke-miterlimit:10" d="M 1208.439 1708.367 L 1280.337 1533.858"/><path style="fill:none;stroke:#0E0E0E;stroke-width:1.02;stroke-dasharray:3.06;stroke-linejoin:round;stroke-linecap:round;stroke-miterlimit:10" d="M 1186.624 1306.542 c 0 0 -21.471 -6.215 -168.376 -6.215 h -35.874 c -146.906 0 -168.376 6.215 -168.376 6.215"/><path style="fill:none;stroke:#0E0E0E;stroke-width:1.02;stroke-dasharray:3.06;stroke-linejoin:round;stroke-linecap:round;stroke-miterlimit:10" d="M 1152.158 1288.462 c 33.745 144.503 75.364 237.161 123.74 285.336"/><path style="fill:none;stroke:#0E0E0E;stroke-width:1.02;stroke-dasharray:3.06;stroke-linejoin:round;stroke-linecap:round;stroke-miterlimit:10" d="M 1161.544 1289.324 c 37.018 141.734 74.352 222.67 119.603 273.487"/><path style="fill:none;stroke:#0E0E0E;stroke-width:2.04;stroke-linejoin:round;stroke-linecap:round;stroke-miterlimit:10" d="M 1264.848 438.209 c 0 0 29.455 17.267 3.471 33.3 c -25.984 16.032 -106.698 63.577 -163.088 105.04 s -103.18 84.11 -137.456 127.784"/><path style="fill:none;stroke:#0E0E0E;stroke-width:2.04;stroke-linejoin:round;stroke-linecap:round;stroke-miterlimit:10" d="M 1223.201 567.182 c 0 0 -60.523 138.88 -222.449 138.88 h -0.883 c -161.925 0 -222.449 -138.88 -222.449 -138.88"/><path style="fill:none;stroke:#0E0E0E;stroke-width:2.04;stroke-linejoin:round;stroke-linecap:round;stroke-miterlimit:10" d="M 546.882 1743.634 c -68.045 -34.101 -140.508 -46.474 -216.892 -39.548"/><path style="fill:none;stroke:#0E0E0E;stroke-width:1.02;stroke-dasharray:3.06;stroke-linejoin:round;stroke-linecap:round;stroke-miterlimit:10" d="M 548.222 1733.808 c -68.045 -34.101 -140.508 -46.474 -216.892 -39.548"/><path style="fill:none;stroke:#0E0E0E;stroke-width:2.04;stroke-linejoin:round;stroke-linecap:round;stroke-miterlimit:10" d="M 590.341 1719.435 c 0 0 80.617 -12.205 373.402 -12.205 h 73.135 c 292.785 0 373.402 12.205 373.402 12.205"/><path style="fill:none;stroke:#0E0E0E;stroke-width:2.04;stroke-linejoin:round;stroke-linecap:round;stroke-miterlimit:10" d="M 778.656 1709.165 l -65.78 -162.515 c 0 0 63.2 -101.894 105.119 -254.736 c 0 0 45.788 -5.804 165.74 -5.804 h 33.151 c 119.952 0 165.74 5.804 165.74 5.804 c 41.919 152.842 105.119 254.736 105.119 254.736 l -65.78 162.515"/><path style="fill:none;stroke:#0E0E0E;stroke-width:2.04;stroke-linejoin:round;stroke-linecap:round;stroke-miterlimit:10" d="M 573.55 1638.938 c 0 0 -9.001 -244.484 1.317 -417.963 s 9.674 -234.744 27.731 -336.639 c 18.057 -101.894 39.339 -194.76 33.535 -211.528"/><path style="fill:none;stroke:#0E0E0E;stroke-width:2.04;stroke-linejoin:round;stroke-linecap:round;stroke-miterlimit:10" d="M 635.003 704.974 L 588.409 662.657"/><path style="fill:none;stroke:#0E0E0E;stroke-width:1.02;stroke-dasharray:3.06;stroke-linejoin:round;stroke-linecap:round;stroke-miterlimit:10" d="M 632.787 714.477 L 583.699 669.006"/><path style="fill:none;stroke:#0E0E0E;stroke-width:1.02;stroke-dasharray:3.06;stroke-linejoin:round;stroke-linecap:round;stroke-miterlimit:10" d="M 636.193 694.725 L 593.571 656.729"/><path style="fill:none;stroke:#0E0E0E;stroke-width:2.04;stroke-linejoin:round;stroke-linecap:round;stroke-miterlimit:10" d="M 801.031 556.346 c 0 0 63.79 35.389 108.161 64.621 c 28.48 18.763 57.82 41.182 78.219 59.527"/><path style="fill:none;stroke:#0E0E0E;stroke-width:2.04;stroke-linejoin:round;stroke-linecap:round;stroke-miterlimit:10" d="M 706.651 464.364 c 0 0 -9.918 -54.811 287.628 -54.811 h 12.063 c 297.546 0 287.628 54.811 287.628 54.811"/><path style="fill:none;stroke:#0E0E0E;stroke-width:1.02;stroke-dasharray:3.06;stroke-linejoin:round;stroke-linecap:round;stroke-miterlimit:10" d="M 775.566 1700.236 c -0.402 0.75 -101.112 -0.222 -187.406 10.697"/><path style="fill:none;stroke:#0E0E0E;stroke-width:1.02;stroke-dasharray:3.06;stroke-linejoin:round;stroke-linecap:round;stroke-miterlimit:10" d="M 792.182 1708.367 L 720.284 1533.858"/><path style="fill:none;stroke:#0E0E0E;stroke-width:1.02;stroke-dasharray:3.06;stroke-linejoin:round;stroke-linecap:round;stroke-miterlimit:10" d="M 848.463 1288.462 c -33.745 144.503 -75.364 237.161 -123.74 285.336"/><path style="fill:none;stroke:#0E0E0E;stroke-width:1.02;stroke-dasharray:3.06;stroke-linejoin:round;stroke-linecap:round;stroke-miterlimit:10" d="M 839.077 1289.324 c -37.018 141.734 -74.352 222.67 -119.603 273.487"/><path style="fill:none;stroke:#0E0E0E;stroke-width:2.04;stroke-linejoin:round;stroke-linecap:round;stroke-miterlimit:10" d="M 735.773 438.209 c 0 0 -29.455 17.267 -3.471 33.3 S 839 535.085 895.389 576.548 c 39.307 28.902 74.852 59.953 104.391 90.905"/><path style="fill:none;stroke:#0E0E0E;stroke-width:1.02;stroke-dasharray:3.06;stroke-linejoin:round;stroke-linecap:round;stroke-miterlimit:10" d="M 767.432 571.627 c 0 0 56.982 144.684 232.437 144.684 h 0.883 c 175.455 0 232.437 -144.684 232.437 -144.684"/><path style="fill:none;stroke:#0E0E0E;stroke-width:2.04;stroke-linejoin:round;stroke-linecap:round;stroke-miterlimit:10" d="M 1000.303 150.44 L 1000.303 369.453"/><path style="fill:none;stroke:#0E0E0E;stroke-width:2.04;stroke-linejoin:round;stroke-linecap:round;stroke-miterlimit:10" d="M 723.53 400.748 c 0 0 -2.591 -30.659 272.908 -30.659 h 7.498 c 275.499 0 272.908 30.659 272.908 30.659"/></svg>