<svg xmlns="http://www.w3.org/2000/svg" viewBox="133.62 676.52 873.76 647.62" role="img"><path style="fill:none;stroke:#0E0E0E;stroke-width:4.079;stroke-linejoin:round;stroke-linecap:round;stroke-miterlimit:10" d="M 533.747 693.327 c -12.003 0.222 -17.338 4.668 -21.117 8.669 c -3.779 4.001 -16.004 17.56 -20.228 21.784 s -7.797 8.874 -7.797 8.874 s -96.204 24.051 -120.255 50.001 c -24.051 25.95 -102.533 183.547 -148.103 308.865 s -65.824 180.382 -65.824 180.382 l 78.482 35.443 l 117.723 -143.673 l 8.861 75.317 h 201.78 h 10.762 h 217.48 l 8.861 -75.317 l 117.723 143.673 l 78.482 -35.443 c 0 0 -20.253 -55.064 -65.824 -180.382 c -45.57 -125.318 -124.052 -282.915 -148.103 -308.865 c -24.051 -25.95 -120.255 -50.001 -120.255 -50.001 s -3.574 -4.651 -7.797 -8.874 s -16.449 -17.783 -20.228 -21.784 c -3.779 -4.001 -9.114 -8.447 -21.117 -8.669 c 0 0 -24.723 0.708 -36.893 0.708 C 558.191 694.035 533.747 693.327 533.747 693.327 Z"/><path style="fill:none;stroke:#0E0E0E;stroke-width:4.079;stroke-linejoin:round;stroke-linecap:round;stroke-miterlimit:10" d="M 794.373 1163.673 c 0 0 20.594 -178.367 17.886 -182.157 c -2.708 -3.791 -52.528 -44.405 -38.99 -162.998"/><path style="fill:none;stroke:#0E0E0E;stroke-width:4.079;stroke-linejoin:round;stroke-linecap:round;stroke-miterlimit:10" d="M 790.057 1199.749 L 568.032 1199.749 L 556.491 1199.749 L 350.945 1199.749"/><path style="fill:none;stroke:#0E0E0E;stroke-width:2.04;stroke-dasharray:8.159;stroke-linejoin:round;stroke-linecap:round;stroke-miterlimit:10" d="M 790.057 1202.52 L 568.032 1202.52 L 556.491 1202.52 L 350.945 1202.52"/><path style="fill:none;stroke:#0E0E0E;stroke-width:4.079;stroke-linejoin:round;stroke-linecap:round;stroke-miterlimit:10" d="M 776.519 1200.291 L 807.182 994.243"/><path style="fill:none;stroke:#0E0E0E;stroke-width:4.079;stroke-linejoin:round;stroke-linecap:round;stroke-miterlimit:10" d="M 774.048 780.427 c 0 0 -18.371 50.127 -14.697 102.092 c 3.674 51.964 21.258 80.571 53.014 101.042"/><path style="fill:none;stroke:#0E0E0E;stroke-width:2.04;stroke-dasharray:8.159;stroke-linejoin:round;stroke-linecap:round;stroke-miterlimit:10" d="M 772.073 778.451 c 0 0 -20.222 50.106 -16.548 102.07 s 19.079 82.805 56.666 106.273"/><path style="fill:none;stroke:#0E0E0E;stroke-width:2.04;stroke-dasharray:8.159;stroke-linejoin:round;stroke-linecap:round;stroke-miterlimit:10" d="M 767.747 775.719 c 0 0 -22.012 50.106 -18.338 102.07 c 3.674 51.964 19.353 92.913 62.613 115.909"/><path style="fill:none;stroke:#0E0E0E;stroke-width:4.079;stroke-linejoin:round;stroke-linecap:round;stroke-miterlimit:10" d="M 765.581 773.794 c 0 0 -22.995 50.106 -19.321 102.07 c 3.674 51.964 17.328 95.987 65.22 120.294"/><path style="fill:none;stroke:#0E0E0E;stroke-width:4.079;stroke-linejoin:round;stroke-linecap:round;stroke-miterlimit:10" d="M 655.174 741.885 c 0 0 66.808 15.403 105.965 41.013"/><path style="fill:none;stroke:#0E0E0E;stroke-width:2.04;stroke-dasharray:8.159;stroke-linejoin:round;stroke-linecap:round;stroke-miterlimit:10" d="M 655.545 739.659 c 0 0 66.808 15.403 105.965 41.013"/><path style="fill:none;stroke:#0E0E0E;stroke-width:2.04;stroke-dasharray:8.159;stroke-linejoin:round;stroke-linecap:round;stroke-miterlimit:10" d="M 657.772 735.576 c 0 0 66.808 15.403 105.965 41.013"/><path style="fill:none;stroke:#0E0E0E;stroke-width:4.079;stroke-linejoin:round;stroke-linecap:round;stroke-miterlimit:10" d="M 883.49 1272.624 c 0 0 59.875 -34.51 91.797 -41.93"/><path style="fill:none;stroke:#0E0E0E;stroke-width:2.04;stroke-dasharray:8.159;stroke-linejoin:round;stroke-linecap:round;stroke-miterlimit:10" d="M 884.698 1275.385 c 0 0 59.875 -34.51 91.797 -41.93"/><path style="fill:none;stroke:#0E0E0E;stroke-width:2.04;stroke-dasharray:8.159;stroke-linejoin:round;stroke-linecap:round;stroke-miterlimit:10" d="M 881.247 1270.553 c 0 0 59.875 -34.51 91.797 -41.93"/><path style="fill:none;stroke:#0E0E0E;stroke-width:4.079;stroke-linejoin:round;stroke-linecap:round;stroke-miterlimit:10" d="M 802.741 1088.621 L 917.096 1254.154"/><path style="fill:none;stroke:#0E0E0E;stroke-width:2.04;stroke-dasharray:8.159;stroke-linejoin:round;stroke-linecap:round;stroke-miterlimit:10" d="M 804.168 1086.637 L 918.523 1252.169"/><path style="fill:none;stroke:#0E0E0E;stroke-width:2.04;stroke-dasharray:8.159;stroke-linejoin:round;stroke-linecap:round;stroke-miterlimit:10" d="M 804.764 1079.3 L 922.573 1249.825"/><path style="fill:none;stroke:#0E0E0E;stroke-width:4.079;stroke-linejoin:round;stroke-linecap:round;stroke-miterlimit:10" d="M 804.7 1074.664 L 925.421 1250.236"/><path style="fill:none;stroke:#0E0E0E;stroke-width:4.079;stroke-linejoin:round;stroke-linecap:round;stroke-miterlimit:10" d="M 705.416 1056.056 H 716.3420000000001 V 1171.843 H 705.416 Z"/><path style="fill:none;stroke:#0E0E0E;stroke-width:2.04;stroke-dasharray:8.159;stroke-linejoin:round;stroke-linecap:round;stroke-miterlimit:10" d="M 703.474 1053.826 H 718.2620000000001 V 1173.821 H 703.474 Z"/><path style="fill:none;stroke:#0E0E0E;stroke-width:2.04;stroke-dasharray:8.159;stroke-linejoin:round;stroke-linecap:round;stroke-miterlimit:10" d="M 705.271 1056.101 L 710.432 1171.259"/><path style="fill:none;stroke:#0E0E0E;stroke-width:4.079;stroke-linejoin:round;stroke-linecap:round;stroke-miterlimit:10" d="M 612.505 888.36 L 618.904 985.227 L 661.931 1006.189 L 706.503 988.757 L 712.24 887.257"/><path style="fill:none;stroke:#0E0E0E;stroke-width:2.04;stroke-linejoin:round;stroke-linecap:round;stroke-miterlimit:10" d="M 618.904 917.707 L 618.952 918.378"/><path style="fill:none;stroke:#0E0E0E;stroke-width:2.04;stroke-dasharray:8.142 8.142;stroke-linejoin:round;stroke-linecap:round;stroke-miterlimit:10" d="M 619.048 919.717 L 623.423 980.65"/><path style="fill:none;stroke:#0E0E0E;stroke-width:2.04;stroke-linejoin:round;stroke-linecap:round;stroke-miterlimit:10" d="M 623.472 981.32 L 623.52 981.991 L 624.132 982.27"/><path style="fill:none;stroke:#0E0E0E;stroke-width:2.04;stroke-dasharray:8.289 8.289;stroke-linejoin:round;stroke-linecap:round;stroke-miterlimit:10" d="M 625.375 982.839 L 661.978 999.569 L 700.543 985.419"/><path style="fill:none;stroke:#0E0E0E;stroke-width:2.04;stroke-linejoin:round;stroke-linecap:round;stroke-miterlimit:10" d="M 701.185 985.183 L 701.816 984.951 L 701.856 984.28"/><path style="fill:none;stroke:#0E0E0E;stroke-width:2.04;stroke-dasharray:8.252 8.252;stroke-linejoin:round;stroke-linecap:round;stroke-miterlimit:10" d="M 701.937 982.921 L 705.761 918.396"/><path style="fill:none;stroke:#0E0E0E;stroke-width:2.04;stroke-linejoin:round;stroke-linecap:round;stroke-miterlimit:10" d="M 705.801 917.717 L 705.841 917.045"/><path style="fill:none;stroke:#0E0E0E;stroke-width:4.079;stroke-linejoin:round;stroke-linecap:round;stroke-miterlimit:10" d="M 610.519 888.139 L 611.843 915.28 L 662.593 932.27 L 712.681 914.618 L 714.446 887.257"/><path style="fill:none;stroke:#0E0E0E;stroke-width:2.04;stroke-dasharray:8.159;stroke-linejoin:round;stroke-linecap:round;stroke-miterlimit:10" d="M 617.816 917.164 L 617.816 888.04"/><path style="fill:none;stroke:#0E0E0E;stroke-width:2.04;stroke-dasharray:8.159;stroke-linejoin:round;stroke-linecap:round;stroke-miterlimit:10" d="M 706.711 917.164 L 706.711 888.04"/><path style="fill:none;stroke:#0E0E0E;stroke-width:2.04;stroke-linejoin:round;stroke-linecap:round;stroke-miterlimit:10" d="M 611.575 912.448 L 612.212 912.664"/><path style="fill:none;stroke:#0E0E0E;stroke-width:2.04;stroke-dasharray:8.087 8.087;stroke-linejoin:round;stroke-linecap:round;stroke-miterlimit:10" d="M 613.476 913.091 L 662.055 929.506 L 711.27 912.471"/><path style="fill:none;stroke:#0E0E0E;stroke-width:2.04;stroke-linejoin:round;stroke-linecap:round;stroke-miterlimit:10" d="M 711.9 912.252 L 712.535 912.032"/><path style="fill:none;stroke:#0E0E0E;stroke-width:2.04;stroke-linejoin:round;stroke-linecap:round;stroke-miterlimit:10" d="M 611.575 906.901 L 612.212 907.117"/><path style="fill:none;stroke:#0E0E0E;stroke-width:2.04;stroke-dasharray:8.087 8.087;stroke-linejoin:round;stroke-linecap:round;stroke-miterlimit:10" d="M 613.476 907.543 L 662.055 923.959 L 711.27 906.923"/><path style="fill:none;stroke:#0E0E0E;stroke-width:2.04;stroke-linejoin:round;stroke-linecap:round;stroke-miterlimit:10" d="M 711.9 906.705 L 712.535 906.485"/><path style="fill:none;stroke:#0E0E0E;stroke-width:4.079;stroke-linejoin:round;stroke-linecap:round;stroke-miterlimit:10" d="M 655.495 912.444 A 7.098 7.098 0 1 0 669.6909999999999 912.444 A 7.098 7.098 0 1 0 655.495 912.444 Z"/><path style="fill:none;stroke:#0E0E0E;stroke-width:4.079;stroke-linejoin:round;stroke-linecap:round;stroke-miterlimit:10" d="M 346.629 1163.673 c 0 0 -20.594 -178.367 -17.886 -182.157 s 52.528 -44.405 38.99 -162.998"/><path style="fill:none;stroke:#0E0E0E;stroke-width:4.079;stroke-linejoin:round;stroke-linecap:round;stroke-miterlimit:10" d="M 364.483 1200.291 L 333.82 994.243"/><path style="fill:none;stroke:#0E0E0E;stroke-width:4.079;stroke-linejoin:round;stroke-linecap:round;stroke-miterlimit:10" d="M 366.954 780.427 c 0 0 18.371 50.127 14.697 102.092 c -3.674 51.964 -21.258 80.571 -53.014 101.042"/><path style="fill:none;stroke:#0E0E0E;stroke-width:2.04;stroke-dasharray:8.159;stroke-linejoin:round;stroke-linecap:round;stroke-miterlimit:10" d="M 368.929 778.451 c 0 0 20.222 50.106 16.548 102.07 s -19.079 82.805 -56.666 106.273"/><path style="fill:none;stroke:#0E0E0E;stroke-width:2.04;stroke-dasharray:8.159;stroke-linejoin:round;stroke-linecap:round;stroke-miterlimit:10" d="M 373.255 775.719 c 0 0 22.012 50.106 18.338 102.07 s -19.353 92.913 -62.613 115.909"/><path style="fill:none;stroke:#0E0E0E;stroke-width:4.079;stroke-linejoin:round;stroke-linecap:round;stroke-miterlimit:10" d="M 375.421 773.794 c 0 0 22.995 50.106 19.321 102.07 c -3.674 51.964 -17.328 95.987 -65.22 120.294"/><path style="fill:none;stroke:#0E0E0E;stroke-width:4.079;stroke-linejoin:round;stroke-linecap:round;stroke-miterlimit:10" d="M 485.828 741.885 c 0 0 -66.808 15.403 -105.965 41.013"/><path style="fill:none;stroke:#0E0E0E;stroke-width:2.04;stroke-dasharray:8.159;stroke-linejoin:round;stroke-linecap:round;stroke-miterlimit:10" d="M 485.457 739.659 c 0 0 -66.808 15.403 -105.965 41.013"/><path style="fill:none;stroke:#0E0E0E;stroke-width:2.04;stroke-dasharray:8.159;stroke-linejoin:round;stroke-linecap:round;stroke-miterlimit:10" d="M 483.23 735.576 c 0 0 -66.808 15.403 -105.965 41.013"/><path style="fill:none;stroke:#0E0E0E;stroke-width:4.079;stroke-linejoin:round;stroke-linecap:round;stroke-miterlimit:10" d="M 257.512 1272.624 c 0 0 -59.875 -34.51 -91.797 -41.93"/><path style="fill:none;stroke:#0E0E0E;stroke-width:2.04;stroke-dasharray:8.159;stroke-linejoin:round;stroke-linecap:round;stroke-miterlimit:10" d="M 256.304 1275.385 c 0 0 -59.875 -34.51 -91.797 -41.93"/><path style="fill:none;stroke:#0E0E0E;stroke-width:2.04;stroke-dasharray:8.159;stroke-linejoin:round;stroke-linecap:round;stroke-miterlimit:10" d="M 259.755 1270.553 c 0 0 -59.875 -34.51 -91.797 -41.93"/><path style="fill:none;stroke:#0E0E0E;stroke-width:4.079;stroke-linejoin:round;stroke-linecap:round;stroke-miterlimit:10" d="M 338.261 1088.621 L 223.906 1254.154"/><path style="fill:none;stroke:#0E0E0E;stroke-width:2.04;stroke-dasharray:8.159;stroke-linejoin:round;stroke-linecap:round;stroke-miterlimit:10" d="M 336.834 1086.637 L 222.479 1252.169"/><path style="fill:none;stroke:#0E0E0E;stroke-width:2.04;stroke-dasharray:8.159;stroke-linejoin:round;stroke-linecap:round;stroke-miterlimit:10" d="M 336.238 1079.3 L 218.429 1249.825"/><path style="fill:none;stroke:#0E0E0E;stroke-width:4.079;stroke-linejoin:round;stroke-linecap:round;stroke-miterlimit:10" d="M 336.302 1074.664 L 215.58 1250.236"/><path style="fill:none;stroke:#0E0E0E;stroke-width:4.079;stroke-linejoin:round;stroke-linecap:round;stroke-miterlimit:10" d="M 424.661 1056.056 H 435.587 V 1171.843 H 424.661 Z"/><path style="fill:none;stroke:#0E0E0E;stroke-width:2.04;stroke-dasharray:8.159;stroke-linejoin:round;stroke-linecap:round;stroke-miterlimit:10" d="M 422.74 1053.826 H 437.528 V 1173.821 H 422.74 Z"/><path style="fill:none;stroke:#0E0E0E;stroke-width:2.04;stroke-dasharray:8.159;stroke-linejoin:round;stroke-linecap:round;stroke-miterlimit:10" d="M 435.731 1056.101 L 430.569 1171.259"/><path style="fill:none;stroke:#0E0E0E;stroke-width:4.079;stroke-linejoin:round;stroke-linecap:round;stroke-miterlimit:10" d="M 528.497 888.36 L 522.098 985.227 L 479.071 1006.189 L 434.499 988.757 L 428.762 887.257"/><path style="fill:none;stroke:#0E0E0E;stroke-width:2.04;stroke-linejoin:round;stroke-linecap:round;stroke-miterlimit:10" d="M 522.098 917.707 L 522.05 918.378"/><path style="fill:none;stroke:#0E0E0E;stroke-width:2.04;stroke-dasharray:8.142 8.142;stroke-linejoin:round;stroke-linecap:round;stroke-miterlimit:10" d="M 521.954 919.717 L 517.578 980.65"/><path style="fill:none;stroke:#0E0E0E;stroke-width:2.04;stroke-linejoin:round;stroke-linecap:round;stroke-miterlimit:10" d="M 517.53 981.32 L 517.482 981.991 L 516.87 982.27"/><path style="fill:none;stroke:#0E0E0E;stroke-width:2.04;stroke-dasharray:8.289 8.289;stroke-linejoin:round;stroke-linecap:round;stroke-miterlimit:10" d="M 515.627 982.839 L 479.024 999.569 L 440.459 985.419"/><path style="fill:none;stroke:#0E0E0E;stroke-width:2.04;stroke-linejoin:round;stroke-linecap:round;stroke-miterlimit:10" d="M 439.817 985.183 L 439.186 984.951 L 439.146 984.28"/><path style="fill:none;stroke:#0E0E0E;stroke-width:2.04;stroke-dasharray:8.252 8.252;stroke-linejoin:round;stroke-linecap:round;stroke-miterlimit:10" d="M 439.065 982.921 L 435.241 918.396"/><path style="fill:none;stroke:#0E0E0E;stroke-width:2.04;stroke-linejoin:round;stroke-linecap:round;stroke-miterlimit:10" d="M 435.201 917.717 L 435.161 917.045"/><path style="fill:none;stroke:#0E0E0E;stroke-width:4.079;stroke-linejoin:round;stroke-linecap:round;stroke-miterlimit:10" d="M 530.483 888.139 L 529.159 915.28 L 478.409 932.27 L 428.321 914.618 L 426.556 887.257"/><path style="fill:none;stroke:#0E0E0E;stroke-width:2.04;stroke-dasharray:8.159;stroke-linejoin:round;stroke-linecap:round;stroke-miterlimit:10" d="M 523.186 917.164 L 523.186 888.04"/><path style="fill:none;stroke:#0E0E0E;stroke-width:2.04;stroke-dasharray:8.159;stroke-linejoin:round;stroke-linecap:round;stroke-miterlimit:10" d="M 434.291 917.164 L 434.291 888.04"/><path style="fill:none;stroke:#0E0E0E;stroke-width:2.04;stroke-linejoin:round;stroke-linecap:round;stroke-miterlimit:10" d="M 529.427 912.448 L 528.79 912.664"/><path style="fill:none;stroke:#0E0E0E;stroke-width:2.04;stroke-dasharray:8.087 8.087;stroke-linejoin:round;stroke-linecap:round;stroke-miterlimit:10" d="M 527.526 913.091 L 478.947 929.506 L 429.732 912.471"/><path style="fill:none;stroke:#0E0E0E;stroke-width:2.04;stroke-linejoin:round;stroke-linecap:round;stroke-miterlimit:10" d="M 429.102 912.252 L 428.466 912.032"/><path style="fill:none;stroke:#0E0E0E;stroke-width:2.04;stroke-linejoin:round;stroke-linecap:round;stroke-miterlimit:10" d="M 529.427 906.901 L 528.79 907.117"/><path style="fill:none;stroke:#0E0E0E;stroke-width:2.04;stroke-dasharray:8.087 8.087;stroke-linejoin:round;stroke-linecap:round;stroke-miterlimit:10" d="M 527.526 907.543 L 478.947 923.959 L 429.732 906.923"/><path style="fill:none;stroke:#0E0E0E;stroke-width:2.04;stroke-linejoin:round;stroke-linecap:round;stroke-miterlimit:10" d="M 429.102 906.705 L 428.466 906.485"/><path style="fill:none;stroke:#0E0E0E;stroke-width:4.079;stroke-linejoin:round;stroke-linecap:round;stroke-miterlimit:10" d="M 471.311 912.444 A 7.098 7.098 0 1 0 485.507 912.444 A 7.098 7.098 0 1 0 471.311 912.444 Z"/><path style="fill:none;stroke:#0E0E0E;stroke-width:4.079;stroke-linejoin:round;stroke-linecap:round;stroke-miterlimit:10" d="M 526.004 728.834 c 0 0 18.109 2.326 44.193 2.326 c 26.084 0 43.861 -1.828 43.861 -1.828"/><path style="fill:none;stroke:#0E0E0E;stroke-width:4.079;stroke-linejoin:round;stroke-linecap:round;stroke-miterlimit:10" d="M 527.248 733.874 c 0 0 17.598 2.326 42.945 2.326 c 25.347 0 42.622 -1.828 42.622 -1.828"/><path style="fill:none;stroke:#0E0E0E;stroke-width:4.079;stroke-linejoin:round;stroke-linecap:round;stroke-miterlimit:10" d="M 759.319 887.703 L 381.303 887.703"/><path style="fill:none;stroke:#0E0E0E;stroke-width:2.04;stroke-dasharray:8.159;stroke-linejoin:round;stroke-linecap:round;stroke-miterlimit:10" d="M 759.319 885.448 L 381.303 885.448"/><path style="fill:none;stroke:#0E0E0E;stroke-width:2.04;stroke-dasharray:8.159;stroke-linejoin:round;stroke-linecap:round;stroke-miterlimit:10" d="M 759.319 882.347 L 381.303 882.347"/><path style="fill:none;stroke:#0E0E0E;stroke-width:4.079;stroke-linejoin:round;stroke-linecap:round;stroke-miterlimit:10" d="M 547.725 799.496 H 592.2230000000001 V 1238.996 H 547.725 Z"/><path style="fill:none;stroke:#0E0E0E;stroke-width:2.04;stroke-linejoin:round;stroke-linecap:round;stroke-miterlimit:10" d="M 589.89 802.643 L 589.89 801.97 L 589.217 801.97"/><path style="fill:none;stroke:#0E0E0E;stroke-width:2.04;stroke-dasharray:8.048 8.048;stroke-linejoin:round;stroke-linecap:round;stroke-miterlimit:10" d="M 587.89 801.97 L 551.395 801.97"/><path style="fill:none;stroke:#0E0E0E;stroke-width:2.04;stroke-linejoin:round;stroke-linecap:round;stroke-miterlimit:10" d="M 550.731 801.97 L 550.058 801.97 L 550.058 802.643"/><path style="fill:none;stroke:#0E0E0E;stroke-width:2.04;stroke-dasharray:8.138 8.138;stroke-linejoin:round;stroke-linecap:round;stroke-miterlimit:10" d="M 550.058 803.985 L 550.058 1235.396"/><path style="fill:none;stroke:#0E0E0E;stroke-width:2.04;stroke-linejoin:round;stroke-linecap:round;stroke-miterlimit:10" d="M 550.058 1236.067 L 550.058 1236.74 L 550.731 1236.74"/><path style="fill:none;stroke:#0E0E0E;stroke-width:2.04;stroke-dasharray:8.048 8.048;stroke-linejoin:round;stroke-linecap:round;stroke-miterlimit:10" d="M 552.058 1236.74 L 588.553 1236.74"/><path style="fill:none;stroke:#0E0E0E;stroke-width:2.04;stroke-linejoin:round;stroke-linecap:round;stroke-miterlimit:10" d="M 589.217 1236.74 L 589.89 1236.74 L 589.89 1236.067"/><path style="fill:none;stroke:#0E0E0E;stroke-width:2.04;stroke-dasharray:8.138 8.138;stroke-linejoin:round;stroke-linecap:round;stroke-miterlimit:10" d="M 589.89 1234.725 L 589.89 803.314"/><path style="fill:none;stroke:#0E0E0E;stroke-width:4.079;stroke-linejoin:round;stroke-linecap:round;stroke-miterlimit:10" d="M 563.5870000000001 896.82 A 6.387 6.387 0 1 0 576.361 896.82 A 6.387 6.387 0 1 0 563.5870000000001 896.82 Z"/><path style="fill:none;stroke:#0E0E0E;stroke-width:4.079;stroke-linejoin:round;stroke-linecap:round;stroke-miterlimit:10" d="M 563.5870000000001 976.607 A 6.387 6.387 0 1 0 576.361 976.607 A 6.387 6.387 0 1 0 563.5870000000001 976.607 Z"/><path style="fill:none;stroke:#0E0E0E;stroke-width:4.079;stroke-linejoin:round;stroke-linecap:round;stroke-miterlimit:10" d="M 563.5870000000001 1059.061 A 6.387 6.387 0 1 0 576.361 1059.061 A 6.387 6.387 0 1 0 563.5870000000001 1059.061 Z"/><path style="fill:none;stroke:#0E0E0E;stroke-width:4.079;stroke-linejoin:round;stroke-linecap:round;stroke-miterlimit:10" d="M 563.5870000000001 1141.515 A 6.387 6.387 0 1 0 576.361 1141.515 A 6.387 6.387 0 1 0 563.5870000000001 1141.515 Z"/><path style="fill:none;stroke:#0E0E0E;stroke-width:4.079;stroke-linejoin:round;stroke-linecap:round;stroke-miterlimit:10" d="M 563.5870000000001 1217.965 A 6.387 6.387 0 1 0 576.361 1217.965 A 6.387 6.387 0 1 0 563.5870000000001 1217.965 Z"/><path style="fill:none;stroke:#0E0E0E;stroke-width:4.079;stroke-linejoin:round;stroke-linecap:round;stroke-miterlimit:10" d="M 563.5870000000001 811.698 A 6.387 6.387 0 1 0 576.361 811.698 A 6.387 6.387 0 1 0 563.5870000000001 811.698 Z"/><path style="fill:none;stroke:#0E0E0E;stroke-width:4.079;stroke-linejoin:round;stroke-linecap:round;stroke-miterlimit:10" d="M 656.397 732.654 c 0 0 -4.066 17.478 -12.208 41.396 c -8.143 23.919 -16.285 55.471 -16.285 55.471 s -38.677 -10.941 -57.761 -30.026 c 0 0 19.847 -12.468 24.682 -22.901 c 4.835 -10.433 22.901 -52.926 26.972 -69.975"/><path style="fill:none;stroke:#0E0E0E;stroke-width:4.079;stroke-linejoin:round;stroke-linecap:round;stroke-miterlimit:10" d="M 483.882 732.654 c 0 0 4.066 17.478 12.208 41.396 c 8.143 23.919 16.285 55.471 16.285 55.471 s 38.677 -10.941 57.761 -30.026 c 0 0 -19.847 -12.468 -24.682 -22.901 c -4.835 -10.433 -22.901 -52.926 -26.972 -69.975"/><path style="fill:none;stroke:#0E0E0E;stroke-width:2.04;stroke-linejoin:round;stroke-linecap:round;stroke-miterlimit:10" d="M 654.975 730.958 L 654.779 731.601"/><path style="fill:none;stroke:#0E0E0E;stroke-width:2.04;stroke-dasharray:8.157 8.157;stroke-linejoin:round;stroke-linecap:round;stroke-miterlimit:10" d="M 654.386 732.888 L 626.317 824.874"/><path style="fill:none;stroke:#0E0E0E;stroke-width:2.04;stroke-linejoin:round;stroke-linecap:round;stroke-miterlimit:10" d="M 626.121 825.518 l -0.196 0.643 c 0 0 -0.216 -0.084 -0.622 -0.245"/><path style="fill:none;stroke:#0E0E0E;stroke-width:2.04;stroke-dasharray:8.288 8.288;stroke-linejoin:round;stroke-linecap:round;stroke-miterlimit:10" d="M 624.036 825.41 c -8.465 -3.403 -42.809 -17.6 -49.704 -26.636"/><path style="fill:none;stroke:#0E0E0E;stroke-width:2.04;stroke-linejoin:round;stroke-linecap:round;stroke-miterlimit:10" d="M 573.936 798.214 c -0.127 -0.196 -0.24 -0.389 -0.338 -0.579"/><path style="fill:none;stroke:#0E0E0E;stroke-width:2.04;stroke-linejoin:round;stroke-linecap:round;stroke-miterlimit:10" d="M 650.95 726.583 L 650.752 727.226"/><path style="fill:none;stroke:#0E0E0E;stroke-width:2.04;stroke-dasharray:8.221 8.221;stroke-linejoin:round;stroke-linecap:round;stroke-miterlimit:10" d="M 650.354 728.521 L 622.646 818.57"/><path style="fill:none;stroke:#0E0E0E;stroke-width:2.04;stroke-linejoin:round;stroke-linecap:round;stroke-miterlimit:10" d="M 622.447 819.218 l -0.198 0.643 c 0 0 -0.211 -0.099 -0.605 -0.286"/><path style="fill:none;stroke:#0E0E0E;stroke-width:2.04;stroke-dasharray:8.164 8.164;stroke-linejoin:round;stroke-linecap:round;stroke-miterlimit:10" d="M 620.432 818.997 c -7.318 -3.509 -34.548 -16.864 -40.954 -24.307"/><path style="fill:none;stroke:#0E0E0E;stroke-width:2.04;stroke-linejoin:round;stroke-linecap:round;stroke-miterlimit:10" d="M 579.052 794.163 c -0.142 -0.189 -0.269 -0.373 -0.38 -0.553"/><path style="fill:none;stroke:#0E0E0E;stroke-width:2.04;stroke-linejoin:round;stroke-linecap:round;stroke-miterlimit:10" d="M 485.372 730.958 L 485.569 731.601"/><path style="fill:none;stroke:#0E0E0E;stroke-width:2.04;stroke-dasharray:8.157 8.157;stroke-linejoin:round;stroke-linecap:round;stroke-miterlimit:10" d="M 485.961 732.888 L 514.031 824.874"/><path style="fill:none;stroke:#0E0E0E;stroke-width:2.04;stroke-linejoin:round;stroke-linecap:round;stroke-miterlimit:10" d="M 514.227 825.518 l 0.196 0.643 c 0 0 0.216 -0.084 0.622 -0.245"/><path style="fill:none;stroke:#0E0E0E;stroke-width:2.04;stroke-dasharray:8.288 8.288;stroke-linejoin:round;stroke-linecap:round;stroke-miterlimit:10" d="M 516.312 825.41 c 8.465 -3.403 42.809 -17.6 49.704 -26.636"/><path style="fill:none;stroke:#0E0E0E;stroke-width:2.04;stroke-linejoin:round;stroke-linecap:round;stroke-miterlimit:10" d="M 566.412 798.214 c 0.127 -0.196 0.24 -0.389 0.338 -0.579"/><path style="fill:none;stroke:#0E0E0E;stroke-width:2.04;stroke-linejoin:round;stroke-linecap:round;stroke-miterlimit:10" d="M 489.397 726.583 L 489.595 727.226"/><path style="fill:none;stroke:#0E0E0E;stroke-width:2.04;stroke-dasharray:8.221 8.221;stroke-linejoin:round;stroke-linecap:round;stroke-miterlimit:10" d="M 489.994 728.521 L 517.701 818.57"/><path style="fill:none;stroke:#0E0E0E;stroke-width:2.04;stroke-linejoin:round;stroke-linecap:round;stroke-miterlimit:10" d="M 517.901 819.218 l 0.198 0.643 c 0 0 0.211 -0.099 0.605 -0.286"/><path style="fill:none;stroke:#0E0E0E;stroke-width:2.04;stroke-dasharray:8.164 8.164;stroke-linejoin:round;stroke-linecap:round;stroke-miterlimit:10" d="M 519.915 818.997 c 7.318 -3.509 34.548 -16.864 40.954 -24.307"/><path style="fill:none;stroke:#0E0E0E;stroke-width:2.04;stroke-linejoin:round;stroke-linecap:round;stroke-miterlimit:10" d="M 561.295 794.163 c 0.142 -0.189 0.269 -0.373 0.38 -0.553"/></svg>