<svg xmlns="http://www.w3.org/2000/svg" viewBox="116.41 376.99 1768 1246.72" role="img"><path style="fill:none;stroke:#0E0E0E;stroke-width:2.04;stroke-linejoin:round;stroke-linecap:round;stroke-miterlimit:10" d="M 1155.652 421.111 l 694.756 154.297 l -79.928 303.534 l -239.41 -10.384 l 45.74 721.16 l -1168.174 -5.059 l 58.409 -731.011 l -252.08 -2.529 l -64.557 -301.005 l 707.052 -139.12 C 857.46 410.993 988.124 462.264 1155.652 421.111 Z"/><path style="fill:none;stroke:#0E0E0E;stroke-width:2.04;stroke-linejoin:round;stroke-linecap:round;stroke-miterlimit:10" d="M 818.735 417.889 c 0 0 176.034 106.841 370.246 11.7"/><path style="fill:none;stroke:#0E0E0E;stroke-width:2.04;stroke-linejoin:round;stroke-linecap:round;stroke-miterlimit:10" d="M 496.493 482.385 c 0 0 87.212 98.188 -29.449 371.262"/><path style="fill:none;stroke:#0E0E0E;stroke-width:2.04;stroke-linejoin:round;stroke-linecap:round;stroke-miterlimit:10" d="M 1501.62 497.295 c 0 0 -87.212 98.188 29.449 371.262"/><path style="fill:none;stroke:#0E0E0E;stroke-width:2.04;stroke-linejoin:round;stroke-linecap:round;stroke-miterlimit:10" d="M 411.349 1554.602 L 1573.269 1554.602"/><path style="fill:none;stroke:#0E0E0E;stroke-width:2.04;stroke-linejoin:round;stroke-linecap:round;stroke-miterlimit:10" d="M 1719.682 876.222 L 1800.949 567.787"/><path style="fill:none;stroke:#0E0E0E;stroke-width:2.04;stroke-linejoin:round;stroke-linecap:round;stroke-miterlimit:10" d="M 265.574 850.711 L 197.997 544.455"/></svg>