<svg xmlns="http://www.w3.org/2000/svg" viewBox="134.04 595 854.69 805.98" role="img"><path style="fill:none;stroke:#0E0E0E;stroke-width:2.04;stroke-linejoin:round;stroke-linecap:round;stroke-miterlimit:10" d="M 585.195 1384.544 c 164.747 0 239.685 -6.542 239.685 -6.542 c 10.475 -116.828 11.535 -230.258 0.5 -339.323 l 146.916 -90.148 c -56.45 -95.19 -181.598 -248.922 -203.366 -264.049 c -21.768 -15.127 -109.58 -57.188 -109.58 -57.188 s -11.907 -4.4 -17.634 -10.127 c -5.727 -5.727 -35.996 14.726 -76.082 14.726 h -8.496 c -40.086 0 -70.355 -20.452 -76.082 -14.726 c -5.727 5.727 -17.634 10.127 -17.634 10.127 s -87.811 42.061 -109.58 57.188 S 206.926 853.34 150.476 948.53 l 146.916 90.148 c -11.035 109.065 -9.976 222.496 0.5 339.323 c 0 0 74.939 6.542 239.685 6.542 H 585.195 Z"/><path style="fill:none;stroke:#0E0E0E;stroke-width:2.04;stroke-linejoin:round;stroke-linecap:round;stroke-miterlimit:10" d="M 825.38 1038.678 c -12.133 -143.686 -36.685 -262.614 -70.558 -362.963"/><path style="fill:none;stroke:#0E0E0E;stroke-width:2.04;stroke-linejoin:round;stroke-linecap:round;stroke-miterlimit:10" d="M 787.389 791.426 L 826.985 748.7"/><path style="fill:none;stroke:#0E0E0E;stroke-width:2.04;stroke-linejoin:round;stroke-linecap:round;stroke-miterlimit:10" d="M 967.98 941.617 L 824.314 1029.663"/><path style="fill:none;stroke:#0E0E0E;stroke-width:2.04;stroke-linejoin:round;stroke-linecap:round;stroke-miterlimit:10" d="M 640.153 616.469 c 0 0 -8.338 74.792 -76.814 74.792 h -3.908 c -68.475 0 -76.814 -74.792 -76.814 -74.792"/><path style="fill:none;stroke:#0E0E0E;stroke-width:2.04;stroke-linejoin:round;stroke-linecap:round;stroke-miterlimit:10" d="M 826.316 1365.645 c 0 0 -77.151 6.38 -240.026 6.38 h -49.809 c -162.875 0 -240.026 -6.38 -240.026 -6.38"/><path style="fill:none;stroke:#0E0E0E;stroke-width:2.04;stroke-linejoin:round;stroke-linecap:round;stroke-miterlimit:10" d="M 297.392 1038.678 c 12.133 -143.686 36.685 -262.614 70.558 -362.963"/><path style="fill:none;stroke:#0E0E0E;stroke-width:2.04;stroke-linejoin:round;stroke-linecap:round;stroke-miterlimit:10" d="M 335.383 791.426 L 295.786 748.7"/><path style="fill:none;stroke:#0E0E0E;stroke-width:2.04;stroke-linejoin:round;stroke-linecap:round;stroke-miterlimit:10" d="M 154.792 941.617 L 298.458 1029.663"/><path style="fill:none;stroke:#0E0E0E;stroke-width:2.04;stroke-linejoin:round;stroke-linecap:round;stroke-miterlimit:10" d="M 463.422 627.293 c 0 0 10.353 82.919 96.17 82.919 h 3.588 c 85.817 0 96.17 -82.919 96.17 -82.919"/><path style="fill:none;stroke:#0E0E0E;stroke-width:2.04;stroke-linejoin:round;stroke-linecap:round;stroke-miterlimit:10" d="M 487.141 635.282 c 0 0 30.098 15.932 69.502 15.932 h 9.487 c 39.404 0 69.502 -15.932 69.502 -15.932"/></svg>